<svg id="Layer_1" data-name="Layer 1" xmlns="http://www.w3.org/2000/svg" viewBox="0 0 161.98 59.16"><defs><style>.cls-1{fill:#ef4b25;}.cls-2{fill:#08273a;}</style></defs><g id="Group_47"><path id="Path_1027" class="cls-1" d="M50.6,5a5,5,0,1,0-5,5,5,5,0,0,0,5-5"/></g><path class="cls-2" d="M96.1,22V14.75H93.44V13.57h6.61v1.18H97.4V22Z"/><path class="cls-2" d="M100.79,22v-8.4h1.14v3.48a2,2,0,0,1,1.54-.66,2.08,2.08,0,0,1,2.16,2.15V22h-1.14V18.78a1.21,1.21,0,0,0-1.24-1.32,1.32,1.32,0,0,0-1.32,1.44V22Z"/><path class="cls-2" d="M106.68,19.25a2.82,2.82,0,0,1,2.89-2.86,2.77,2.77,0,0,1,2.8,3.19H107.9A1.7,1.7,0,0,0,109.6,21a1.83,1.83,0,0,0,1.57-.84l.9.61a2.82,2.82,0,0,1-2.47,1.32A2.86,2.86,0,0,1,106.68,19.25Zm4.49-.54a1.57,1.57,0,0,0-1.6-1.26,1.61,1.61,0,0,0-1.63,1.26Z"/><path class="cls-2" d="M117.2,22v-8.4h3a2.74,2.74,0,1,1,0,5.48h-1.7V22Zm1.26-4.08H120a1.62,1.62,0,0,0,1.7-1.62,1.59,1.59,0,0,0-1.7-1.56h-1.5Z"/><path class="cls-2" d="M126,22.05a1.73,1.73,0,0,1-1.88-2V13.57h1.14v6.5a.82.82,0,0,0,.92.89v1.09Z"/><path class="cls-2" d="M127.21,20.32A1.63,1.63,0,0,1,129,18.75h1.25a.5.5,0,0,0,.56-.5c0-.36-.39-.83-1.22-.83a1.42,1.42,0,0,0-1.38.91l-.85-.55a2.32,2.32,0,0,1,2.23-1.39A2.17,2.17,0,0,1,132,18.53V22h-1.05v-.6a2,2,0,0,1-1.63.73A1.88,1.88,0,0,1,127.21,20.32Zm3.66-.61v-.07h-1.71a.71.71,0,0,0-.76.7c0,.43.36.78,1,.78A1.36,1.36,0,0,0,130.87,19.71Z"/><path class="cls-2" d="M136.05,22a1.79,1.79,0,0,1-2-1.94V17.52h-1v-.83h0a1.29,1.29,0,0,0,1.22-1.46v0h.84v1.32h1.64v1H135.2V20a.91.91,0,0,0,1,1h.65V22Z"/><path class="cls-2" d="M138.8,22V17.52h-1.08v-.94h.4a.64.64,0,0,0,.72-.66v-.44a2.05,2.05,0,0,1,2.2-2.15h.21v1.06h-.18a1.06,1.06,0,0,0-1.13,1.19v.94h1.47v1h-1.47V22Z"/><path class="cls-2" d="M142,19.25a2.93,2.93,0,1,1,2.92,2.85A2.84,2.84,0,0,1,142,19.25Zm4.65,0a1.73,1.73,0,1,0-3.45,0,1.73,1.73,0,1,0,3.45,0Z"/><path class="cls-2" d="M149.25,22V16.52h1.07v.76a1.74,1.74,0,0,1,1.59-.88h.4v1.12h-.48a1.38,1.38,0,0,0-1.44,1.53V22Z"/><path class="cls-2" d="M153.57,22V16.52h1.07v.63a1.84,1.84,0,0,1,1.59-.76,2,2,0,0,1,1.75.91,2,2,0,0,1,1.79-.91A2.11,2.11,0,0,1,162,18.54V22h-1.14V18.78a1.17,1.17,0,0,0-1.2-1.32,1.29,1.29,0,0,0-1.28,1.43V22h-1.14V18.78A1.2,1.2,0,0,0,156,17.46a1.3,1.3,0,0,0-1.28,1.43V22Z"/><path class="cls-2" d="M94.39,35v-8.4h5.29v1.15h-4v2.35h3.69V31.2H95.64v2.62h4V35Z"/><path class="cls-2" d="M101.32,35V29.52h1.07v.63a1.92,1.92,0,0,1,1.62-.76,2.09,2.09,0,0,1,2.16,2.15V35H105V31.78a1.21,1.21,0,0,0-1.25-1.32,1.31,1.31,0,0,0-1.32,1.43V35Z"/><path class="cls-2" d="M112.16,29.52h1.14V35a2.76,2.76,0,0,1-2.91,2.85,2.88,2.88,0,0,1-2.53-1.37l.94-.63a1.84,1.84,0,0,0,1.59.88A1.66,1.66,0,0,0,112.16,35v-.56a2.79,2.79,0,0,1-1.78.64,2.86,2.86,0,1,1,0-5.71,2.79,2.79,0,0,1,1.78.64Zm0,2.73a1.73,1.73,0,1,0-3.46,0,1.73,1.73,0,1,0,3.46,0Z"/><path class="cls-2" d="M114.7,27.5a.79.79,0,0,1,1.58,0,.79.79,0,0,1-1.58,0Zm.22,7.47V29.52h1.14V35Z"/><path class="cls-2" d="M117.74,35V29.52h1.07v.63a1.91,1.91,0,0,1,1.62-.76,2.09,2.09,0,0,1,2.16,2.15V35h-1.14V31.78a1.21,1.21,0,0,0-1.25-1.32,1.31,1.31,0,0,0-1.32,1.43V35Z"/><path class="cls-2" d="M123.92,32.25a2.82,2.82,0,0,1,2.89-2.86,2.78,2.78,0,0,1,2.81,3.19h-4.48A1.71,1.71,0,0,0,126.85,34a1.83,1.83,0,0,0,1.57-.84l.9.61a2.84,2.84,0,0,1-2.47,1.32A2.87,2.87,0,0,1,123.92,32.25Zm4.5-.54a1.58,1.58,0,0,0-1.61-1.26,1.61,1.61,0,0,0-1.63,1.26Z"/><path class="cls-2" d="M130.69,32.25a2.82,2.82,0,0,1,2.89-2.86,2.77,2.77,0,0,1,2.8,3.19h-4.47a1.7,1.7,0,0,0,1.7,1.43,1.86,1.86,0,0,0,1.58-.84l.89.61a2.82,2.82,0,0,1-2.47,1.32A2.86,2.86,0,0,1,130.69,32.25Zm4.5-.54a1.58,1.58,0,0,0-1.61-1.26A1.61,1.61,0,0,0,132,31.71Z"/><path class="cls-2" d="M137.79,35V29.52h1.07v.76a1.74,1.74,0,0,1,1.59-.88h.4v1.12h-.48a1.38,1.38,0,0,0-1.44,1.53V35Z"/><path class="cls-2" d="M27.68,7.83V45c0,3-.61,5.9-1.42,7.18a4.41,4.41,0,0,1-1.7,1.57A2.92,2.92,0,0,0,23,56.3h0a2.87,2.87,0,0,0,3.38,2.82c6.5-1.16,10.58-5.86,10.58-14V14.16h1A3.17,3.17,0,0,0,41.1,11h0a3.17,3.17,0,0,0-3.16-3.16H27.68Z"/><polygon class="cls-2" points="50.22 40.33 50.22 14.19 40.99 14.19 40.99 40.33 50.22 40.33 50.22 40.33"/><path class="cls-2" d="M67.43,30.29a3.07,3.07,0,0,0,3.42,3.05C79.74,32.26,85,27.57,85,20.61c0-9.18-6.55-12.78-17.22-12.78H53.39A3.17,3.17,0,0,0,50.22,11h0a3.18,3.18,0,0,0,3.17,3.18h1V40.33h9.23V14.17H66.7c5.61,0,10.2,1.92,10.2,6.78s-3.22,5.91-6.73,6.3a3.08,3.08,0,0,0-2.74,3Z"/><path class="cls-2" d="M23.53,40.33V7.83H3.17A3.17,3.17,0,0,0,0,11H0a3.17,3.17,0,0,0,3.17,3.17H14.29V40.33Z"/></svg>