<?xml version="1.0" encoding="UTF-8"?>
<svg id="Layer_1" data-name="Layer 1" xmlns="http://www.w3.org/2000/svg" viewBox="0 0 747.41 268.02">
  <defs>
    <style>
      .cls-1 {
        stroke-width: 0px;
      }
    </style>
  </defs>
  <path class="cls-1" d="M646.58,181.41c-6.47,0-11.72,5.25-11.72,11.72s5.25,11.72,11.72,11.72,11.72-5.25,11.72-11.72-5.25-11.72-11.72-11.72Z"/>
  <polygon class="cls-1" points="281.1 181.97 281.1 101.42 268.44 77.37 253.31 77.36 253.31 205.21 324.76 205.14 324.66 181.97 281.1 181.97"/>
  <polygon class="cls-1" points="617.38 100.13 617.38 76.89 549.17 76.89 535.3 103.49 535.3 204.74 617.38 204.74 617.38 181.51 563.09 181.51 563.09 151.24 605.14 151.24 605.14 129.59 563.09 129.59 563.09 100.13 617.38 100.13"/>
  <path class="cls-1" d="M513.82,181.59c-4.25,1.17-8.18,2.03-11.7,2.58-4.73.73-10.16,1.11-16.13,1.13-7.29.02-13.56-1.34-18.62-4.04-5.26-2.8-9.31-8.91-12.04-15.39-2.64-6.25-3.94-14.47-3.97-25.11-.03-10.39,1.22-18.49,3.82-24.76,2.68-6.47,6.65-11.22,11.8-14.11,5-2.81,11.31-4.25,18.75-4.27,4.43-.01,9.27.33,14.37,1.03,1.44.2,2.84.42,4.22.66l9.94-18.54c-3.42-1-7.19-1.85-11.25-2.52-6.32-1.02-12.63-1.53-18.76-1.51-13.62.04-25.13,2.39-34.44,6.99l-28.53,54.69c-.01.81-.03,1.61-.03,2.43.06,21.73,5.31,37.98,15.58,48.31,10.25,10.3,25.71,15.49,45.96,15.43,7.36-.02,14.45-.6,21.08-1.72,5.23-.89,10.4-2.23,15.37-3.97l1.09-.38-5.31-17.25-1.21.33Z"/>
  <path class="cls-1" d="M220.84,136.92c4.96-4.17,8.39-9.45,10.1-15.43.82-2.86,1.24-5.87,1.24-9,0-.93-.04-1.84-.1-2.74l-11.75-22.32c-3.02-2.45-6.55-4.5-10.54-6.1-6.41-2.58-13.98-3.98-22.42-3.98h-53.51v127.85h55.15c29.19,0,48.81-15.46,48.81-38.47,0-12.66-6.16-23.43-16.97-29.82ZM161.72,100.6h25.27c5.42,0,9.67,1.27,12.57,3.65l4.26,8.09c.08.67.14,1.35.14,2.07,0,8.7-6.58,15.65-16.77,15.65h-25.47v-29.47ZM189.01,181.98h-27.29v-30.26h27.06c12.48,0,20.54,4.41,20.54,14.71s-7.59,15.55-20.31,15.55Z"/>
  <polygon class="cls-1" points="428.8 77.36 388.74 77.36 362.33 127.52 335.91 77.36 297.78 77.36 293.86 77.36 297.78 84.81 306.1 100.6 319.29 100.6 348.29 155.66 348.29 205.21 362.33 205.21 376.36 205.21 376.36 155.66 405.36 100.6 416.68 100.6 418.55 100.6 430.79 77.36 428.8 77.36"/>
</svg>