<svg version="1.1" id="Layer_1" xmlns="http://www.w3.org/2000/svg" xmlns:xlink="http://www.w3.org/1999/xlink" x="0px" y="0px"
	 width="100%" viewBox="0 0 350 350" enable-background="new 0 0 350 350" xml:space="preserve">
<path fill="#FEFEFE" opacity="1.000000" stroke="none" 
	d="
M190.000000,351.000000 
	C126.666679,351.000000 63.833355,351.000000 1.000025,351.000000 
	C1.000017,234.333359 1.000017,117.666733 1.000008,1.000072 
	C117.666618,1.000048 234.333237,1.000048 350.999878,1.000024 
	C350.999939,117.666595 350.999939,234.333191 350.999969,350.999878 
	C297.500000,351.000000 244.000000,351.000000 190.000000,351.000000 
M197.191940,287.321808 
	C197.935364,286.929260 198.678787,286.536713 199.422211,286.144165 
	C197.792343,284.968719 196.066605,282.731873 194.555267,282.868408 
	C192.330063,283.069397 190.257751,284.962830 188.120316,286.135376 
	C189.149033,287.790192 189.878113,289.796051 191.290421,291.001495 
	C192.713760,292.216370 194.815659,292.636261 196.620239,293.404449 
	C196.383789,294.055023 196.147324,294.705597 195.910873,295.356171 
	C193.216507,294.569641 190.522125,293.783081 187.332397,292.851959 
	C188.627045,297.972260 191.869812,298.849640 195.279907,298.005707 
	C197.118896,297.550568 198.533478,295.380646 200.139526,293.984375 
	C198.514664,292.217133 196.889786,290.449921 195.949554,288.039429 
	C196.170258,287.817291 196.390961,287.595123 197.191940,287.321808 
M179.173615,287.368652 
	C179.810257,287.028534 180.446899,286.688416 181.083542,286.348297 
	C179.560013,285.116882 177.970337,282.813202 176.528259,282.902191 
	C174.294327,283.039978 172.161087,284.810242 169.985138,285.888336 
	C170.894028,287.599304 171.443329,289.724915 172.808960,290.909271 
	C174.291809,292.195282 176.534134,292.605530 178.445282,293.397675 
	C178.272110,293.968262 178.098938,294.538879 177.925751,295.109497 
	C176.477463,294.971100 174.973206,295.029541 173.596802,294.638275 
	C172.251923,294.256012 171.037521,293.414825 168.797394,292.287872 
	C170.536041,298.094696 173.887314,298.893524 177.474243,297.960724 
	C179.189056,297.514801 181.949387,294.771698 181.695770,294.203979 
	C180.763412,292.116913 178.766983,290.505280 177.855774,288.126068 
	C178.077469,287.922485 178.299179,287.718872 179.173615,287.368652 
M173.822830,37.186501 
	C177.301010,41.635899 176.599716,46.763115 176.682785,51.949402 
	C176.763092,56.962341 177.178406,62.345203 179.104004,66.858421 
	C181.517776,72.515846 187.081406,72.707741 191.218735,68.241371 
	C196.609131,62.422283 197.432892,52.509853 192.703751,44.495823 
	C185.209534,31.796099 172.473221,26.749783 158.466797,21.209393 
	C162.471741,29.327206 161.081696,36.345951 159.493408,43.297813 
	C157.940201,50.096161 157.524933,56.803535 160.150223,63.407684 
	C161.938324,67.905792 164.959717,70.903839 170.157013,71.073235 
	C174.186020,71.204552 175.703918,68.953690 173.906235,65.784126 
	C170.718750,60.164040 171.789902,54.695160 172.703644,48.875084 
	C173.280273,45.202320 172.462738,41.310680 172.720673,37.214867 
	C172.857819,37.097145 172.994965,36.979424 173.822830,37.186501 
M132.918152,211.186371 
	C131.390488,214.363327 132.418243,217.173141 135.410614,218.134216 
	C137.282639,218.735489 140.949890,218.011169 141.732361,216.669250 
	C142.726501,214.964340 141.772400,212.003815 141.354538,209.638351 
	C141.087967,208.129288 139.855255,206.738770 139.779404,205.258011 
	C139.558105,200.937164 139.595520,196.593704 139.761414,192.267899 
	C139.813766,190.903076 140.171295,189.039581 141.101669,188.296921 
	C151.720215,179.820724 162.476715,171.517365 174.337189,162.279282 
	C172.933182,169.959824 176.433762,176.732269 171.278534,182.841385 
	C170.447220,183.826508 171.643143,188.034012 173.081451,189.005325 
	C174.574585,190.013657 178.308945,189.723694 179.570602,188.483337 
	C180.820496,187.254547 180.544220,184.094604 180.292648,181.854095 
	C180.132172,180.424850 178.126465,179.140564 178.099350,177.768539 
	C177.900253,167.693726 177.991867,157.613159 177.991867,146.431580 
	C184.255356,151.428070 189.387451,156.183075 195.166321,159.944366 
	C200.847214,163.641876 203.457626,168.130188 202.190674,174.791046 
	C201.511780,178.360199 201.411469,182.187836 199.974899,185.421143 
	C198.636322,188.433838 197.981888,191.250595 200.688034,192.891129 
	C202.437210,193.951523 205.953857,193.913986 207.662506,192.804245 
	C210.328873,191.072495 209.959305,188.050415 208.035172,185.324081 
	C207.070312,183.956985 205.839661,182.045502 206.112473,180.650787 
	C208.669434,167.578201 203.138855,158.739136 192.000519,152.696899 
	C180.375961,146.390884 175.597336,136.975510 177.855560,123.728600 
	C178.660980,119.003944 177.984604,114.026695 177.984604,108.931145 
	C179.105804,109.277191 179.479156,109.291527 179.713562,109.479301 
	C189.073715,116.977333 198.056381,125.018135 207.891754,131.827606 
	C215.104996,136.821625 218.581284,142.438110 217.126755,151.194443 
	C216.551407,154.658112 217.588257,158.227417 214.465485,161.304916 
	C213.566391,162.190979 214.395920,166.444962 215.746094,167.549347 
	C217.118896,168.672226 221.178848,168.725143 222.136566,167.603073 
	C223.458694,166.054077 223.395660,162.922119 223.153885,160.546722 
	C222.889404,157.948044 221.337982,155.479172 221.081116,152.881180 
	C220.705872,149.085983 221.331665,145.181931 220.851288,141.410828 
	C220.574982,139.241714 219.469925,136.643768 217.858673,135.270462 
	C210.382721,128.898682 202.578949,122.912834 194.932556,116.739265 
	C189.367981,112.246536 181.755157,108.697113 178.929657,102.853813 
	C176.106415,97.015198 178.100342,88.846626 177.986420,81.699394 
	C177.973145,80.866501 178.216049,79.943596 177.935547,79.219093 
	C177.382996,77.791946 176.546387,76.474777 175.827255,75.112114 
	C175.232132,76.423576 174.142456,77.727112 174.121292,79.047783 
	C173.971756,88.376205 174.198669,97.712921 173.915024,107.035118 
	C173.855042,109.006546 172.656601,111.465897 171.168808,112.776497 
	C166.050217,117.285461 160.897507,121.905739 155.148163,125.511566 
	C147.552902,130.275101 144.274094,136.302109 145.617844,145.284317 
	C146.200104,149.176331 146.619766,153.380203 143.225876,156.997452 
	C142.343872,157.937500 143.349854,161.845276 144.667953,163.371353 
	C146.619522,165.630814 149.992752,165.353302 151.572159,162.852936 
	C152.636780,161.167480 152.360504,158.348831 152.018250,156.140289 
	C151.666397,153.869858 150.047592,151.774155 149.803787,149.513489 
	C149.413010,145.889938 149.613480,142.190445 149.741257,138.529236 
	C149.790817,137.109253 149.833481,135.121078 150.711380,134.387360 
	C158.044022,128.259033 165.570724,122.362885 174.016312,115.615845 
	C174.016312,130.033035 174.080231,143.120270 173.904053,156.204300 
	C173.888718,157.343750 172.478012,158.694244 171.401230,159.552490 
	C164.107025,165.366348 157.170898,171.796234 149.268890,176.640121 
	C138.502701,183.239746 133.272415,191.619812 135.591629,204.401062 
	C135.921799,206.220581 134.107346,208.429260 132.918152,211.186371 
M155.121613,82.476776 
	C158.005432,82.235580 160.897339,81.732094 163.770996,81.820648 
	C167.237061,81.927452 169.103073,80.428581 167.045013,77.544327 
	C165.329529,75.140167 162.277496,72.801270 159.479370,72.292458 
	C156.285431,71.711639 152.601929,72.822792 149.336670,73.851151 
	C143.303864,75.751122 137.420883,78.126770 131.158249,80.420448 
	C136.838776,88.853996 143.190857,96.979591 154.309326,99.491974 
	C159.993469,100.776398 166.526917,98.285934 169.278870,93.878578 
	C171.654404,90.074066 170.651093,86.099182 166.308044,85.358406 
	C162.591110,84.724426 158.568466,85.762741 154.696136,86.196358 
	C151.391739,86.566376 148.108841,87.128258 144.816422,87.605270 
	C144.762955,87.145958 144.709473,86.686646 144.655991,86.227325 
	C147.908966,85.099976 151.161957,83.972618 155.121613,82.476776 
M220.011459,88.652283 
	C214.672089,81.779533 209.123718,75.114418 200.246872,72.677399 
	C194.176361,71.010826 188.586411,72.090607 184.478622,77.084274 
	C183.183304,78.658951 182.005478,81.779015 182.727112,83.199585 
	C183.641830,85.000252 186.536377,86.776451 188.598602,86.801559 
	C192.476929,86.848763 196.353683,85.506317 200.263504,84.984421 
	C203.189819,84.593803 206.166977,84.584061 209.121506,84.404732 
	C209.175934,84.965027 209.230362,85.525322 209.284790,86.085617 
	C201.711792,85.426125 195.764420,92.439125 187.744186,90.212746 
	C187.285477,90.085419 185.091537,93.211823 185.428101,93.753479 
	C186.660858,95.737587 188.569168,98.641228 190.319946,98.709343 
	C195.273849,98.902069 200.393219,98.349892 205.227539,97.181450 
	C210.724045,95.852966 215.982681,93.540367 221.617340,91.559731 
	C221.447159,91.223053 220.947571,90.234673 220.011459,88.652283 
M23.645704,249.217911 
	C22.810635,249.820312 21.268156,250.402191 21.249989,251.028290 
	C21.069347,257.252930 21.140501,263.484894 21.140501,269.976013 
	C24.700092,269.976013 27.523849,270.179260 30.307430,269.931366 
	C35.253105,269.490936 37.297371,265.181793 34.766258,260.920288 
	C34.216389,259.994507 33.312252,259.003021 33.332573,258.058167 
	C33.500744,250.237137 32.774788,249.449661 23.645704,249.217911 
M106.736076,269.212646 
	C108.237930,269.528961 109.739784,269.845276 111.436890,270.202728 
	C111.436890,263.081238 111.436890,256.532715 111.436890,249.848602 
	C109.897751,249.848602 108.654152,249.848602 106.790421,249.848602 
	C106.790421,253.523193 106.790421,256.951263 106.790421,260.459503 
	C102.430550,257.257629 103.601021,249.267502 95.861008,249.679138 
	C95.861008,256.689941 95.861008,263.226959 95.861008,269.721985 
	C97.392761,269.721985 98.618988,269.721985 100.264221,269.721985 
	C100.264221,266.085236 100.264221,262.729828 100.264221,259.374451 
	C100.548103,259.304443 100.831985,259.234436 101.115868,259.164429 
	C102.830238,262.304138 104.544609,265.443878 106.736076,269.212646 
M208.360535,253.107635 
	C208.768661,249.295273 206.939606,248.993668 203.593353,250.278519 
	C203.593353,253.689651 203.593353,257.022705 203.593353,260.309357 
	C199.005234,257.595398 200.522781,248.791855 192.457855,249.723389 
	C192.457855,256.797943 192.457855,263.230408 192.457855,270.049530 
	C194.094330,269.905365 195.450150,269.785950 197.303329,269.622681 
	C197.303329,265.931213 197.303329,262.661743 197.303329,259.397552 
	C201.717468,262.327209 200.327454,270.641815 208.360428,269.903839 
	C208.360428,264.293030 208.360428,259.143433 208.360535,253.107635 
M226.912170,254.064148 
	C230.673157,254.842056 234.434158,255.619965 238.558990,256.473145 
	C235.809921,250.397461 231.273956,248.130859 226.054276,249.773041 
	C220.578751,251.495697 217.592392,256.717468 218.893051,262.294739 
	C220.106277,267.497101 225.048203,270.800415 230.579163,270.105988 
	C235.957108,269.430817 239.183365,265.343811 239.032822,259.279297 
	C235.941574,259.279297 232.851639,259.279297 229.761703,259.279297 
	C229.521149,259.755157 229.280609,260.230988 229.040054,260.706848 
	C230.577438,261.635345 232.114807,262.563843 233.606354,263.464630 
	C231.069901,266.470581 228.185242,266.993195 225.509689,264.740967 
	C222.303268,262.041870 222.528595,258.441010 226.912170,254.064148 
M263.915619,264.226105 
	C266.304108,268.674622 270.008209,270.796631 275.021820,270.041260 
	C279.381256,269.384460 282.123871,266.630707 283.421753,262.466125 
	C284.710419,258.331085 283.319763,254.827087 280.307312,252.089767 
	C276.764374,248.870392 272.659027,248.259537 268.338684,250.669327 
	C263.752686,253.227310 262.249298,257.326782 263.915619,264.226105 
M151.015457,254.756531 
	C151.015457,259.725403 151.015457,264.694275 151.015457,270.061462 
	C152.808212,269.901642 154.155136,269.781586 155.782562,269.636475 
	C155.782562,266.929779 155.782562,264.650421 155.782562,262.152008 
	C158.012558,262.152008 159.919205,262.152008 161.994827,262.152008 
	C162.148117,264.812347 162.288132,267.242249 162.430954,269.720978 
	C164.111603,269.720978 165.490479,269.720978 166.930054,269.720978 
	C166.930054,262.967346 166.930054,256.522156 166.930054,249.873596 
	C165.349304,249.873596 163.958862,249.873596 162.359894,249.873596 
	C162.229492,252.599609 162.113159,255.031250 161.993805,257.526337 
	C159.825760,257.526337 158.060074,257.526337 155.965729,257.526337 
	C155.795013,254.927399 155.635925,252.505737 155.481552,250.155624 
	C151.136627,248.326385 150.744690,250.709320 151.015457,254.756531 
M308.338806,249.603699 
	C306.046936,249.274872 304.950165,250.056305 305.120483,252.576447 
	C305.299408,255.224655 305.112457,257.895508 305.165375,260.554871 
	C305.220673,263.334717 304.646606,265.711060 301.268433,265.688416 
	C297.861511,265.665558 297.411682,263.106842 297.378326,260.450195 
	C297.334839,256.990845 297.367676,253.530502 297.367676,249.836426 
	C295.714813,249.836426 294.491089,249.836426 292.990356,249.836426 
	C292.990356,254.546051 292.763824,259.020050 293.055267,263.460022 
	C293.336304,267.741425 296.052063,269.918915 300.305389,270.176575 
	C304.708038,270.443298 308.762939,269.371796 309.334106,264.461060 
	C309.893280,259.653259 309.246490,254.705231 308.338806,249.603699 
M83.497696,270.028748 
	C84.470901,269.960968 85.444107,269.893188 86.766182,269.801086 
	C84.232681,263.553040 81.860039,257.569550 79.376999,251.632217 
	C78.079140,248.528839 75.433403,248.590622 74.247459,251.023453 
	C71.329903,257.008484 69.138794,263.347687 66.297188,270.438660 
	C68.717133,269.899567 70.491112,270.037903 71.384453,269.217407 
	C76.563942,264.460327 79.009720,264.538055 83.497696,270.028748 
M139.533005,252.737274 
	C137.701660,251.654755 135.993393,250.157944 134.015060,249.570221 
	C128.840561,248.032974 123.289894,251.573029 121.748344,257.041626 
	C120.249962,262.357056 123.325417,268.122467 128.549744,269.791901 
	C134.020630,271.540161 139.104736,268.950806 141.444229,262.428802 
	C139.132507,263.223907 137.171326,263.463898 135.761612,264.473694 
	C132.822021,266.579376 129.612122,266.829559 127.906731,263.964355 
	C126.671120,261.888397 126.491280,258.053955 127.619720,255.964462 
	C129.335388,252.787643 132.670029,252.992691 135.824585,255.111557 
	C137.237915,256.060852 139.186035,256.213959 142.179886,257.116974 
	C140.932144,254.868423 140.473999,254.042816 139.533005,252.737274 
M45.154388,250.134430 
	C45.154388,256.709106 45.154388,263.283752 45.154388,269.880524 
	C46.565147,269.880524 47.709721,269.880524 48.902027,269.880524 
	C49.212814,268.114044 49.502556,266.467194 49.904373,264.183350 
	C52.816780,267.037567 53.916752,272.023834 59.269699,269.366943 
	C57.724754,267.223541 56.207680,265.118805 54.448483,262.678162 
	C57.913727,260.534882 59.743851,257.621796 58.161755,253.600204 
	C56.556786,249.520493 52.946743,249.536499 49.387821,249.582825 
	C48.227753,249.597946 47.068138,249.648010 45.154388,250.134430 
M328.832367,264.343750 
	C328.832367,261.058807 328.832367,257.773865 328.832367,254.444992 
	C329.986450,254.193573 330.711761,254.213760 331.216339,253.889999 
	C332.407440,253.125702 333.493469,252.197693 334.622009,251.335907 
	C333.344269,250.624832 332.110718,249.419067 330.780090,249.300323 
	C327.480957,249.005875 324.126038,249.056381 320.819000,249.305939 
	C319.862854,249.378113 318.993073,250.594879 318.083679,251.286880 
	C318.977905,252.156601 319.762054,253.209900 320.803406,253.834244 
	C321.551605,254.282867 322.643219,254.158676 323.984863,254.346436 
	C323.984863,259.527588 323.984863,264.460114 323.984863,269.182159 
	C329.130829,271.477051 328.881195,268.270813 328.832367,264.343750 
M71.208786,293.335358 
	C71.283661,294.787994 71.358543,296.240631 71.448685,297.989349 
	C73.875420,297.989349 76.030937,298.202942 78.126755,297.940247 
	C81.417763,297.527710 82.970879,295.273926 81.768181,292.294800 
	C80.988976,290.364655 80.126945,288.936188 80.684204,286.641876 
	C80.914413,285.694061 78.947540,283.506805 77.587814,283.049744 
	C75.710922,282.418823 73.463043,282.891510 71.208817,282.891510 
	C71.208817,286.424133 71.208817,289.408142 71.208786,293.335358 
M147.094208,295.166656 
	C147.094208,291.078888 147.094208,286.991119 147.094208,282.903351 
	C146.447647,282.745453 145.801086,282.587555 145.154526,282.429657 
	C144.441162,284.691803 143.727814,286.953918 143.010788,289.227692 
	C139.616730,288.391418 140.807953,281.419952 135.243866,283.119629 
	C135.243866,288.180634 135.243866,292.943817 135.243866,297.878540 
	C141.358032,298.270020 136.611847,292.453064 139.664215,290.931519 
	C140.721634,292.741211 141.700958,294.596649 142.850403,296.339874 
	C144.348526,298.611786 145.890213,299.432556 147.094208,295.166656 
M282.116180,284.217896 
	C279.218018,283.586151 276.319885,282.954376 273.243439,282.283752 
	C273.243439,288.181366 273.243439,292.969513 273.243439,299.240387 
	C275.300140,297.287598 276.511963,296.137024 277.224640,295.460358 
	C279.380798,296.530060 281.328308,297.496246 283.275818,298.462402 
	C283.466492,298.141693 283.657135,297.820984 283.847809,297.500275 
	C282.738708,295.873016 281.629578,294.245758 280.520477,292.618469 
	C281.031250,292.630005 281.542053,292.641510 282.052826,292.653015 
	C282.234528,290.027313 282.416229,287.401581 282.116180,284.217896 
M106.745735,286.025116 
	C105.558151,292.692078 113.221840,290.283966 114.638687,295.267487 
	C111.842369,294.531281 109.046051,293.795074 105.966606,292.984344 
	C106.614037,297.158752 109.283501,298.596741 112.440552,298.118195 
	C114.585823,297.792999 117.961723,296.182343 118.178665,294.751129 
	C118.501465,292.621552 116.520088,290.142731 115.442368,287.633484 
	C115.778137,287.529480 116.919090,287.176086 118.131302,286.800629 
	C115.133400,281.573608 111.280319,281.165466 106.745735,286.025116 
M245.992676,295.469025 
	C249.081223,290.283508 248.369843,286.216919 243.917587,283.607025 
	C240.199112,281.427277 235.494919,282.821960 233.293777,286.776367 
	C231.408127,290.164001 232.132599,293.285278 234.763489,295.804749 
	C238.132828,299.031372 241.817963,299.025330 245.992676,295.469025 
M257.416687,285.315857 
	C256.649689,284.358734 255.882690,283.401611 255.115692,282.444489 
	C254.033371,286.374420 253.896500,289.353790 254.065750,292.315704 
	C254.314102,296.661682 257.011902,298.714630 261.056396,297.943878 
	C262.959381,297.581207 265.714050,295.784515 266.035004,294.218079 
	C266.765808,290.650940 266.249054,286.823883 266.097565,283.108246 
	C266.094238,283.026184 264.393616,283.013367 263.145416,282.951385 
	C263.145416,285.939545 263.419861,288.600586 263.030273,291.160522 
	C262.833893,292.451080 261.433624,293.558411 260.577759,294.748627 
	C259.533539,293.542114 258.066071,292.488129 257.561432,291.087219 
	C257.032257,289.618286 257.426666,287.816650 257.416687,285.315857 
M88.805359,282.819641 
	C88.428101,286.080688 87.752014,289.341614 87.751015,292.602783 
	C87.749832,296.471466 90.233162,298.154999 93.981659,298.097015 
	C97.764137,298.038544 99.912476,296.175629 100.049042,292.349670 
	C100.159584,289.252594 100.071465,286.148438 100.071465,283.047455 
	C99.671303,282.858521 99.271141,282.669617 98.870979,282.480682 
	C98.194366,283.329376 97.098312,284.103485 96.931374,285.042725 
	C96.616142,286.816406 97.227570,288.804138 96.719086,290.479919 
	C96.237518,292.067017 94.814354,293.368469 93.805298,294.795532 
	C92.856453,293.349426 91.546547,292.017944 91.042503,290.430603 
	C90.265549,287.983734 90.040779,285.361511 88.805359,282.819641 
M167.063858,313.583496 
	C162.064865,316.570099 160.512955,321.552460 163.166794,326.094879 
	C165.385178,329.891998 169.931839,330.251801 172.632812,326.843994 
	C176.387802,322.106354 173.779419,314.878052 167.063858,313.583496 
M154.305099,283.246613 
	C154.305099,288.130066 154.305099,293.013519 154.305099,298.021332 
	C156.929504,298.021332 159.086700,298.110046 161.227966,297.964600 
	C161.831055,297.923645 162.387497,297.196014 162.965347,296.783386 
	C162.414474,296.171234 161.975235,295.319550 161.288269,294.999420 
	C160.058075,294.426086 158.678711,294.172760 157.361710,293.785645 
	C157.486633,293.392395 157.611572,292.999115 157.736496,292.605835 
	C159.530884,291.970490 161.325287,291.335144 164.380447,290.253357 
	C160.905457,288.944916 159.117081,288.271515 156.576172,287.314758 
	C159.607162,285.914459 161.399200,285.086517 163.191223,284.258606 
	C162.965546,283.792694 162.739853,283.326752 162.514175,282.860840 
	C160.039230,282.860840 157.564285,282.860840 154.305099,283.246613 
M202.359375,328.013641 
	C207.115829,330.889984 205.868500,325.197021 207.024109,324.864380 
	C206.619919,321.819611 206.372498,319.378632 205.939896,316.970978 
	C205.757828,315.957733 205.399017,314.437836 204.733215,314.190369 
	C203.955063,313.901123 202.339890,314.441620 201.807480,315.157410 
	C199.393585,318.402710 197.233444,321.836731 194.954132,325.244446 
	C197.681503,326.009888 199.895248,326.631165 202.359375,328.013641 
M180.181992,318.314270 
	C181.910980,318.024628 183.639969,317.734955 186.891556,317.190186 
	C184.209351,321.464233 181.958771,325.050476 179.468552,329.018585 
	C182.053955,329.018585 184.045517,329.164642 186.002502,328.967499 
	C187.317871,328.835022 188.584335,328.216888 189.872681,327.816040 
	C188.819534,326.912567 187.766388,326.009094 186.579559,324.990936 
	C187.992630,321.603210 193.032379,317.929962 187.227722,314.263153 
	C183.941727,312.187347 181.243988,313.848419 180.181992,318.314270 
M149.462326,318.007904 
	C150.178299,317.826813 150.894272,317.645752 151.610245,317.464661 
	C151.499863,318.670624 151.776443,320.117157 151.204880,321.036377 
	C149.633698,323.563263 147.706741,325.868958 145.610855,328.677155 
	C154.745529,329.409882 156.008362,329.208862 155.951965,326.851593 
	C154.960953,326.378632 153.811554,325.830048 152.581635,325.243073 
	C153.665054,323.537384 155.430740,321.999603 155.420700,320.473511 
	C155.406693,318.344116 154.616577,315.174896 153.136169,314.397400 
	C151.689346,313.637573 148.334686,314.697723 146.945648,316.086975 
	C145.097839,317.935028 146.068054,319.451202 149.462326,318.007904 
M219.357712,295.116913 
	C220.128082,296.136932 220.898453,297.156982 221.668823,298.177002 
	C222.110825,297.895752 222.552811,297.614532 222.994812,297.333282 
	C222.994812,293.711304 222.994812,290.089325 222.994812,286.929352 
	C224.769119,285.894806 226.172592,285.076508 227.576050,284.258209 
	C227.356003,283.745941 227.135956,283.233704 226.915894,282.721436 
	C223.631287,282.721436 220.342560,282.635101 217.065445,282.791748 
	C216.380875,282.824463 215.739197,283.754211 215.077728,284.270569 
	C215.557419,284.803162 215.942154,285.535431 216.539932,285.819672 
	C217.355194,286.207306 218.332855,286.253448 219.356308,286.470459 
	C219.356308,289.239166 219.356308,291.718414 219.357712,295.116913 
M177.635483,256.515900 
	C177.635483,260.910919 177.635483,265.305969 177.635483,269.992798 
	C179.453491,269.865692 180.660263,269.781342 181.860443,269.697418 
	C181.860443,262.952301 181.860443,256.562714 181.860443,250.195618 
	C177.659378,249.768921 177.659378,249.768921 177.635483,256.515900 
M124.923157,290.482208 
	C124.925278,292.292358 124.793022,294.117676 124.994751,295.905304 
	C125.077034,296.634338 125.883560,297.281677 126.360573,297.966187 
	C126.959740,297.240051 127.985527,296.562988 128.075775,295.778320 
	C128.318634,293.666748 128.351288,291.487823 128.111984,289.375916 
	C127.863274,287.181091 127.198357,285.033447 126.715439,282.865173 
	C126.118011,285.082733 125.520576,287.300323 124.923157,290.482208 
z"/>
<path fill="#4C4A4B" opacity="1.000000" stroke="none" 
	d="
M133.101807,210.822098 
	C134.107346,208.429260 135.921799,206.220581 135.591629,204.401062 
	C133.272415,191.619812 138.502701,183.239746 149.268890,176.640121 
	C157.170898,171.796234 164.107025,165.366348 171.401230,159.552490 
	C172.478012,158.694244 173.888718,157.343750 173.904053,156.204300 
	C174.080231,143.120270 174.016312,130.033035 174.016312,115.615845 
	C165.570724,122.362885 158.044022,128.259033 150.711380,134.387360 
	C149.833481,135.121078 149.790817,137.109253 149.741257,138.529236 
	C149.613480,142.190445 149.413010,145.889938 149.803787,149.513489 
	C150.047592,151.774155 151.666397,153.869858 152.018250,156.140289 
	C152.360504,158.348831 152.636780,161.167480 151.572159,162.852936 
	C149.992752,165.353302 146.619522,165.630814 144.667953,163.371353 
	C143.349854,161.845276 142.343872,157.937500 143.225876,156.997452 
	C146.619766,153.380203 146.200104,149.176331 145.617844,145.284317 
	C144.274094,136.302109 147.552902,130.275101 155.148163,125.511566 
	C160.897507,121.905739 166.050217,117.285461 171.168808,112.776497 
	C172.656601,111.465897 173.855042,109.006546 173.915024,107.035118 
	C174.198669,97.712921 173.971756,88.376205 174.121292,79.047783 
	C174.142456,77.727112 175.232132,76.423576 175.827271,75.112114 
	C176.546387,76.474777 177.382996,77.791946 177.935547,79.219093 
	C178.216049,79.943596 177.973145,80.866501 177.986420,81.699394 
	C178.100342,88.846626 176.106415,97.015198 178.929657,102.853813 
	C181.755157,108.697113 189.367981,112.246536 194.932556,116.739265 
	C202.578949,122.912834 210.382721,128.898682 217.858673,135.270462 
	C219.469925,136.643768 220.574982,139.241714 220.851288,141.410828 
	C221.331665,145.181931 220.705872,149.085983 221.081116,152.881180 
	C221.337982,155.479172 222.889404,157.948044 223.153885,160.546722 
	C223.395660,162.922119 223.458694,166.054077 222.136566,167.603073 
	C221.178848,168.725143 217.118896,168.672226 215.746094,167.549347 
	C214.395920,166.444962 213.566391,162.190979 214.465485,161.304916 
	C217.588257,158.227417 216.551407,154.658112 217.126755,151.194443 
	C218.581284,142.438110 215.104996,136.821625 207.891754,131.827606 
	C198.056381,125.018135 189.073715,116.977333 179.713562,109.479301 
	C179.479156,109.291527 179.105804,109.277191 177.984604,108.931145 
	C177.984604,114.026695 178.660980,119.003944 177.855560,123.728600 
	C175.597336,136.975510 180.375961,146.390884 192.000519,152.696899 
	C203.138855,158.739136 208.669434,167.578201 206.112473,180.650787 
	C205.839661,182.045502 207.070312,183.956985 208.035172,185.324081 
	C209.959305,188.050415 210.328873,191.072495 207.662506,192.804245 
	C205.953857,193.913986 202.437210,193.951523 200.688034,192.891129 
	C197.981888,191.250595 198.636322,188.433838 199.974899,185.421143 
	C201.411469,182.187836 201.511780,178.360199 202.190674,174.791046 
	C203.457626,168.130188 200.847214,163.641876 195.166321,159.944366 
	C189.387451,156.183075 184.255356,151.428070 177.991867,146.431580 
	C177.991867,157.613159 177.900253,167.693726 178.099350,177.768539 
	C178.126465,179.140564 180.132172,180.424850 180.292648,181.854095 
	C180.544220,184.094604 180.820496,187.254547 179.570602,188.483337 
	C178.308945,189.723694 174.574585,190.013657 173.081451,189.005325 
	C171.643143,188.034012 170.447220,183.826508 171.278534,182.841385 
	C176.433762,176.732269 172.933182,169.959824 174.337189,162.279282 
	C162.476715,171.517365 151.720215,179.820724 141.101669,188.296921 
	C140.171295,189.039581 139.813766,190.903076 139.761414,192.267899 
	C139.595520,196.593704 139.558105,200.937164 139.779404,205.258011 
	C139.855255,206.738770 141.087967,208.129288 141.354538,209.638351 
	C141.772400,212.003815 142.726501,214.964340 141.732361,216.669250 
	C140.949890,218.011169 137.282639,218.735489 135.410614,218.134216 
	C132.418243,217.173141 131.390488,214.363327 133.101807,210.822098 
z"/>
<path fill="#252E50" opacity="1.000000" stroke="none" 
	d="
M172.270569,37.517220 
	C172.462738,41.310680 173.280273,45.202320 172.703644,48.875084 
	C171.789902,54.695160 170.718750,60.164040 173.906235,65.784126 
	C175.703918,68.953690 174.186020,71.204552 170.157013,71.073235 
	C164.959717,70.903839 161.938324,67.905792 160.150223,63.407684 
	C157.524933,56.803535 157.940201,50.096161 159.493408,43.297813 
	C161.081696,36.345951 162.471741,29.327206 158.466797,21.209393 
	C172.473221,26.749783 185.209534,31.796099 192.703751,44.495823 
	C197.432892,52.509853 196.609131,62.422283 191.218735,68.241371 
	C187.081406,72.707741 181.517776,72.515846 179.104004,66.858421 
	C177.178406,62.345203 176.763092,56.962341 176.682785,51.949402 
	C176.599716,46.763115 177.301010,41.635899 173.359009,36.740891 
	C172.599731,36.289452 172.304291,36.283630 172.008850,36.277805 
	C172.096100,36.690941 172.183350,37.104080 172.270569,37.517220 
z"/>
<path fill="#7CC9C6" opacity="1.000000" stroke="none" 
	d="
M154.768280,82.661018 
	C151.161957,83.972618 147.908966,85.099976 144.655991,86.227325 
	C144.709473,86.686646 144.762955,87.145958 144.816422,87.605270 
	C148.108841,87.128258 151.391739,86.566376 154.696136,86.196358 
	C158.568466,85.762741 162.591110,84.724426 166.308044,85.358406 
	C170.651093,86.099182 171.654404,90.074066 169.278870,93.878578 
	C166.526917,98.285934 159.993469,100.776398 154.309326,99.491974 
	C143.190857,96.979591 136.838776,88.853996 131.158249,80.420448 
	C137.420883,78.126770 143.303864,75.751122 149.336670,73.851151 
	C152.601929,72.822792 156.285431,71.711639 159.479370,72.292458 
	C162.277496,72.801270 165.329529,75.140167 167.045013,77.544327 
	C169.103073,80.428581 167.237061,81.927452 163.770996,81.820648 
	C160.897339,81.732094 158.005432,82.235580 154.768280,82.661018 
z"/>
<path fill="#7CC9C6" opacity="1.000000" stroke="none" 
	d="
M220.229721,88.949280 
	C220.947571,90.234673 221.447159,91.223053 221.617340,91.559731 
	C215.982681,93.540367 210.724045,95.852966 205.227539,97.181450 
	C200.393219,98.349892 195.273849,98.902069 190.319946,98.709343 
	C188.569168,98.641228 186.660858,95.737587 185.428101,93.753479 
	C185.091537,93.211823 187.285477,90.085419 187.744186,90.212746 
	C195.764420,92.439125 201.711792,85.426125 209.284790,86.085617 
	C209.230362,85.525322 209.175934,84.965027 209.121506,84.404732 
	C206.166977,84.584061 203.189819,84.593803 200.263504,84.984421 
	C196.353683,85.506317 192.476929,86.848763 188.598602,86.801559 
	C186.536377,86.776451 183.641830,85.000252 182.727112,83.199585 
	C182.005478,81.779015 183.183304,78.658951 184.478622,77.084274 
	C188.586411,72.090607 194.176361,71.010826 200.246872,72.677399 
	C209.123718,75.114418 214.672089,81.779533 220.229721,88.949280 
z"/>
<path fill="#82CCC9" opacity="1.000000" stroke="none" 
	d="
M24.076441,249.212296 
	C32.774788,249.449661 33.500744,250.237137 33.332573,258.058167 
	C33.312252,259.003021 34.216389,259.994507 34.766258,260.920288 
	C37.297371,265.181793 35.253105,269.490936 30.307430,269.931366 
	C27.523849,270.179260 24.700092,269.976013 21.140501,269.976013 
	C21.140501,263.484894 21.069347,257.252930 21.249989,251.028290 
	C21.268156,250.402191 22.810635,249.820312 24.076441,249.212296 
z"/>
<path fill="#2B3455" opacity="1.000000" stroke="none" 
	d="
M106.497528,268.898132 
	C104.544609,265.443878 102.830238,262.304138 101.115868,259.164429 
	C100.831985,259.234436 100.548103,259.304443 100.264221,259.374451 
	C100.264221,262.729828 100.264221,266.085236 100.264221,269.721985 
	C98.618988,269.721985 97.392761,269.721985 95.861008,269.721985 
	C95.861008,263.226959 95.861008,256.689941 95.861008,249.679138 
	C103.601021,249.267502 102.430550,257.257629 106.790421,260.459503 
	C106.790421,256.951263 106.790421,253.523193 106.790421,249.848602 
	C108.654152,249.848602 109.897751,249.848602 111.436890,249.848602 
	C111.436890,256.532715 111.436890,263.081238 111.436890,270.202728 
	C109.739784,269.845276 108.237930,269.528961 106.497528,268.898132 
z"/>
<path fill="#2C3455" opacity="1.000000" stroke="none" 
	d="
M208.360474,253.550720 
	C208.360428,259.143433 208.360428,264.293030 208.360428,269.903839 
	C200.327454,270.641815 201.717468,262.327209 197.303329,259.397552 
	C197.303329,262.661743 197.303329,265.931213 197.303329,269.622681 
	C195.450150,269.785950 194.094330,269.905365 192.457855,270.049530 
	C192.457855,263.230408 192.457855,256.797943 192.457855,249.723389 
	C200.522781,248.791855 199.005234,257.595398 203.593353,260.309357 
	C203.593353,257.022705 203.593353,253.689651 203.593353,250.278519 
	C206.939606,248.993668 208.768661,249.295273 208.360474,253.550720 
z"/>
<path fill="#2C3556" opacity="1.000000" stroke="none" 
	d="
M226.533173,254.253265 
	C222.528595,258.441010 222.303268,262.041870 225.509689,264.740967 
	C228.185242,266.993195 231.069901,266.470581 233.606354,263.464630 
	C232.114807,262.563843 230.577438,261.635345 229.040054,260.706848 
	C229.280609,260.230988 229.521149,259.755157 229.761703,259.279297 
	C232.851639,259.279297 235.941574,259.279297 239.032822,259.279297 
	C239.183365,265.343811 235.957108,269.430817 230.579163,270.105988 
	C225.048203,270.800415 220.106277,267.497101 218.893051,262.294739 
	C217.592392,256.717468 220.578751,251.495697 226.054276,249.773041 
	C231.273956,248.130859 235.809921,250.397461 238.558990,256.473145 
	C234.434158,255.619965 230.673157,254.842056 226.533173,254.253265 
z"/>
<path fill="#2B3455" opacity="1.000000" stroke="none" 
	d="
M263.750122,263.866547 
	C262.249298,257.326782 263.752686,253.227310 268.338684,250.669327 
	C272.659027,248.259537 276.764374,248.870392 280.307312,252.089767 
	C283.319763,254.827087 284.710419,258.331085 283.421753,262.466125 
	C282.123871,266.630707 279.381256,269.384460 275.021820,270.041260 
	C270.008209,270.796631 266.304108,268.674622 263.750122,263.866547 
M278.025360,263.234924 
	C279.796997,258.682953 278.913422,255.433136 275.364685,254.260574 
	C272.071960,253.172638 269.065582,254.304947 268.161316,257.512817 
	C267.616821,259.444305 268.387390,262.459686 269.703613,264.043274 
	C271.942688,266.737152 274.977325,266.089691 278.025360,263.234924 
z"/>
<path fill="#2E3657" opacity="1.000000" stroke="none" 
	d="
M151.015457,254.297882 
	C150.744690,250.709320 151.136627,248.326385 155.481552,250.155624 
	C155.635925,252.505737 155.795013,254.927399 155.965729,257.526337 
	C158.060074,257.526337 159.825760,257.526337 161.993805,257.526337 
	C162.113159,255.031250 162.229492,252.599609 162.359894,249.873596 
	C163.958862,249.873596 165.349304,249.873596 166.930054,249.873596 
	C166.930054,256.522156 166.930054,262.967346 166.930054,269.720978 
	C165.490479,269.720978 164.111603,269.720978 162.430954,269.720978 
	C162.288132,267.242249 162.148117,264.812347 161.994827,262.152008 
	C159.919205,262.152008 158.012558,262.152008 155.782562,262.152008 
	C155.782562,264.650421 155.782562,266.929779 155.782562,269.636475 
	C154.155136,269.781586 152.808212,269.901642 151.015457,270.061462 
	C151.015457,264.694275 151.015457,259.725403 151.015457,254.297882 
z"/>
<path fill="#2B3455" opacity="1.000000" stroke="none" 
	d="
M308.733917,249.711227 
	C309.246490,254.705231 309.893280,259.653259 309.334106,264.461060 
	C308.762939,269.371796 304.708038,270.443298 300.305389,270.176575 
	C296.052063,269.918915 293.336304,267.741425 293.055267,263.460022 
	C292.763824,259.020050 292.990356,254.546051 292.990356,249.836426 
	C294.491089,249.836426 295.714813,249.836426 297.367676,249.836426 
	C297.367676,253.530502 297.334839,256.990845 297.378326,260.450195 
	C297.411682,263.106842 297.861511,265.665558 301.268433,265.688416 
	C304.646606,265.711060 305.220673,263.334717 305.165375,260.554871 
	C305.112457,257.895508 305.299408,255.224655 305.120483,252.576447 
	C304.950165,250.056305 306.046936,249.274872 308.733917,249.711227 
z"/>
<path fill="#2F3858" opacity="1.000000" stroke="none" 
	d="
M83.099106,270.004089 
	C79.009720,264.538055 76.563942,264.460327 71.384453,269.217407 
	C70.491112,270.037903 68.717133,269.899567 66.297188,270.438660 
	C69.138794,263.347687 71.329903,257.008484 74.247459,251.023453 
	C75.433403,248.590622 78.079140,248.528839 79.376999,251.632217 
	C81.860039,257.569550 84.232681,263.553040 86.766182,269.801086 
	C85.444107,269.893188 84.470901,269.960968 83.099106,270.004089 
z"/>
<path fill="#2F3757" opacity="1.000000" stroke="none" 
	d="
M139.774429,252.977234 
	C140.473999,254.042816 140.932144,254.868423 142.179886,257.116974 
	C139.186035,256.213959 137.237915,256.060852 135.824585,255.111557 
	C132.670029,252.992691 129.335388,252.787643 127.619720,255.964462 
	C126.491280,258.053955 126.671120,261.888397 127.906731,263.964355 
	C129.612122,266.829559 132.822021,266.579376 135.761612,264.473694 
	C137.171326,263.463898 139.132507,263.223907 141.444229,262.428802 
	C139.104736,268.950806 134.020630,271.540161 128.549744,269.791901 
	C123.325417,268.122467 120.249962,262.357056 121.748344,257.041626 
	C123.289894,251.573029 128.840561,248.032974 134.015060,249.570221 
	C135.993393,250.157944 137.701660,251.654755 139.774429,252.977234 
z"/>
<path fill="#273051" opacity="1.000000" stroke="none" 
	d="
M45.531353,249.908264 
	C47.068138,249.648010 48.227753,249.597946 49.387821,249.582825 
	C52.946743,249.536499 56.556786,249.520493 58.161755,253.600204 
	C59.743851,257.621796 57.913727,260.534882 54.448483,262.678162 
	C56.207680,265.118805 57.724754,267.223541 59.269699,269.366943 
	C53.916752,272.023834 52.816780,267.037567 49.904373,264.183350 
	C49.502556,266.467194 49.212814,268.114044 48.902027,269.880524 
	C47.709721,269.880524 46.565147,269.880524 45.154388,269.880524 
	C45.154388,263.283752 45.154388,256.709106 45.531353,249.908264 
M52.258438,253.180664 
	C46.627216,252.972580 50.089474,256.719543 49.391357,258.844330 
	C54.636230,258.717957 55.122601,257.915649 52.258438,253.180664 
z"/>
<path fill="#83CCC9" opacity="1.000000" stroke="none" 
	d="
M328.832153,264.811676 
	C328.881195,268.270813 329.130829,271.477051 323.984863,269.182159 
	C323.984863,264.460114 323.984863,259.527588 323.984863,254.346436 
	C322.643219,254.158676 321.551605,254.282867 320.803406,253.834244 
	C319.762054,253.209900 318.977905,252.156601 318.083679,251.286896 
	C318.993073,250.594879 319.862854,249.378113 320.819000,249.305939 
	C324.126038,249.056381 327.480957,249.005875 330.780090,249.300323 
	C332.110718,249.419067 333.344269,250.624832 334.622009,251.335907 
	C333.493469,252.197693 332.407440,253.125702 331.216339,253.889999 
	C330.711761,254.213760 329.986450,254.193573 328.832367,254.444992 
	C328.832367,257.773865 328.832367,261.058807 328.832153,264.811676 
z"/>
<path fill="#3A4260" opacity="1.000000" stroke="none" 
	d="
M71.208801,292.863770 
	C71.208817,289.408142 71.208817,286.424133 71.208817,282.891510 
	C73.463043,282.891510 75.710922,282.418823 77.587814,283.049744 
	C78.947540,283.506805 80.914413,285.694061 80.684204,286.641876 
	C80.126945,288.936188 80.988976,290.364655 81.768181,292.294800 
	C82.970879,295.273926 81.417763,297.527710 78.126755,297.940247 
	C76.030937,298.202942 73.875420,297.989349 71.448685,297.989349 
	C71.358543,296.240631 71.283661,294.787994 71.208801,292.863770 
z"/>
<path fill="#293253" opacity="1.000000" stroke="none" 
	d="
M147.092407,295.616699 
	C145.890213,299.432556 144.348526,298.611786 142.850403,296.339874 
	C141.700958,294.596649 140.721634,292.741211 139.664215,290.931519 
	C136.611847,292.453064 141.358032,298.270020 135.243866,297.878540 
	C135.243866,292.943817 135.243866,288.180634 135.243866,283.119629 
	C140.807953,281.419952 139.616730,288.391418 143.010788,289.227692 
	C143.727814,286.953918 144.441162,284.691803 145.154526,282.429657 
	C145.801086,282.587555 146.447647,282.745453 147.094208,282.903351 
	C147.094208,286.991119 147.094208,291.078888 147.092407,295.616699 
z"/>
<path fill="#2E3657" opacity="1.000000" stroke="none" 
	d="
M282.357056,284.496887 
	C282.416229,287.401581 282.234528,290.027313 282.052826,292.653015 
	C281.542053,292.641510 281.031250,292.630005 280.520477,292.618469 
	C281.629578,294.245758 282.738708,295.873016 283.847809,297.500275 
	C283.657135,297.820984 283.466492,298.141693 283.275818,298.462402 
	C281.328308,297.496246 279.380798,296.530060 277.224640,295.460358 
	C276.511963,296.137024 275.300140,297.287598 273.243439,299.240387 
	C273.243439,292.969513 273.243439,288.181366 273.243439,282.283752 
	C276.319885,282.954376 279.218018,283.586151 282.357056,284.496887 
z"/>
<path fill="#2F3757" opacity="1.000000" stroke="none" 
	d="
M106.841049,285.684845 
	C111.280319,281.165466 115.133400,281.573608 118.131302,286.800629 
	C116.919090,287.176086 115.778137,287.529480 115.442368,287.633484 
	C116.520088,290.142731 118.501465,292.621552 118.178665,294.751129 
	C117.961723,296.182343 114.585823,297.792999 112.440552,298.118195 
	C109.283501,298.596741 106.614037,297.158752 105.966606,292.984344 
	C109.046051,293.795074 111.842369,294.531281 114.638687,295.267487 
	C113.221840,290.283966 105.558151,292.692078 106.841049,285.684845 
M114.657227,286.659760 
	C113.277519,286.323547 111.897804,285.987335 110.518097,285.651123 
	C110.420685,286.339600 110.323273,287.028107 110.225861,287.716614 
	C111.785301,287.716614 113.344734,287.716614 114.657227,286.659760 
z"/>
<path fill="#313959" opacity="1.000000" stroke="none" 
	d="
M177.170959,288.714722 
	C178.766983,290.505280 180.763412,292.116913 181.695770,294.203979 
	C181.949387,294.771698 179.189056,297.514801 177.474243,297.960724 
	C173.887314,298.893524 170.536041,298.094696 168.797394,292.287872 
	C171.037521,293.414825 172.251923,294.256012 173.596802,294.638275 
	C174.973206,295.029541 176.477463,294.971100 177.925751,295.109497 
	C178.098938,294.538879 178.272110,293.968262 178.445282,293.397675 
	C176.534134,292.605530 174.291809,292.195282 172.808960,290.909271 
	C171.443329,289.724915 170.894028,287.599304 169.985138,285.888336 
	C172.161087,284.810242 174.294327,283.039978 176.528259,282.902191 
	C177.970337,282.813202 179.560013,285.116882 181.083542,286.348297 
	C180.446899,286.688416 179.810257,287.028534 178.624191,287.092285 
	C176.707916,286.380432 175.341064,285.944946 173.974213,285.509491 
	C173.798508,286.118927 173.622787,286.728333 173.447083,287.337769 
	C174.688370,287.796753 175.929657,288.255737 177.170959,288.714722 
z"/>
<path fill="#2F3858" opacity="1.000000" stroke="none" 
	d="
M245.716980,295.746704 
	C241.817963,299.025330 238.132828,299.031372 234.763489,295.804749 
	C232.132599,293.285278 231.408127,290.164001 233.293777,286.776367 
	C235.494919,282.821960 240.199112,281.427277 243.917587,283.607025 
	C248.369843,286.216919 249.081223,290.283508 245.716980,295.746704 
M243.854172,288.079285 
	C241.966858,287.549103 239.811035,286.227478 238.279861,286.746948 
	C237.120285,287.140350 235.883698,290.137543 236.284088,291.507660 
	C236.690445,292.898193 239.142960,294.695221 240.557373,294.579468 
	C243.579407,294.332123 245.096176,292.107605 243.854172,288.079285 
z"/>
<path fill="#323B5A" opacity="1.000000" stroke="none" 
	d="
M195.264908,288.682678 
	C196.889786,290.449921 198.514664,292.217133 200.139526,293.984375 
	C198.533478,295.380646 197.118896,297.550568 195.279907,298.005707 
	C191.869812,298.849640 188.627045,297.972260 187.332397,292.851959 
	C190.522125,293.783081 193.216507,294.569641 195.910873,295.356171 
	C196.147324,294.705597 196.383789,294.055023 196.620239,293.404449 
	C194.815659,292.636261 192.713760,292.216370 191.290421,291.001495 
	C189.878113,289.796051 189.149033,287.790192 188.120316,286.135376 
	C190.257751,284.962830 192.330063,283.069397 194.555267,282.868408 
	C196.066605,282.731873 197.792343,284.968719 199.422211,286.144165 
	C198.678787,286.536713 197.935364,286.929260 196.683960,287.009216 
	C194.849823,286.315186 193.523666,285.933746 192.197525,285.552338 
	C192.033508,286.152039 191.869492,286.751770 191.705475,287.351471 
	C192.891953,287.795197 194.078430,288.238922 195.264908,288.682678 
z"/>
<path fill="#333B5B" opacity="1.000000" stroke="none" 
	d="
M257.417053,285.738129 
	C257.426666,287.816650 257.032257,289.618286 257.561432,291.087219 
	C258.066071,292.488129 259.533539,293.542114 260.577759,294.748627 
	C261.433624,293.558411 262.833893,292.451080 263.030273,291.160522 
	C263.419861,288.600586 263.145416,285.939545 263.145416,282.951385 
	C264.393616,283.013367 266.094238,283.026184 266.097565,283.108246 
	C266.249054,286.823883 266.765808,290.650940 266.035004,294.218079 
	C265.714050,295.784515 262.959381,297.581207 261.056396,297.943878 
	C257.011902,298.714630 254.314102,296.661682 254.065750,292.315704 
	C253.896500,289.353790 254.033371,286.374420 255.115692,282.444489 
	C255.882690,283.401611 256.649689,284.358734 257.417053,285.738129 
z"/>
<path fill="#293153" opacity="1.000000" stroke="none" 
	d="
M89.193573,282.816650 
	C90.040779,285.361511 90.265549,287.983734 91.042503,290.430603 
	C91.546547,292.017944 92.856453,293.349426 93.805298,294.795532 
	C94.814354,293.368469 96.237518,292.067017 96.719086,290.479919 
	C97.227570,288.804138 96.616142,286.816406 96.931374,285.042725 
	C97.098312,284.103485 98.194366,283.329376 98.870979,282.480682 
	C99.271141,282.669617 99.671303,282.858521 100.071465,283.047455 
	C100.071465,286.148438 100.159584,289.252594 100.049042,292.349670 
	C99.912476,296.175629 97.764137,298.038544 93.981659,298.097015 
	C90.233162,298.154999 87.749832,296.471466 87.751015,292.602783 
	C87.752014,289.341614 88.428101,286.080688 89.193573,282.816650 
z"/>
<path fill="#83CCC9" opacity="1.000000" stroke="none" 
	d="
M167.415070,313.470764 
	C173.779419,314.878052 176.387802,322.106354 172.632812,326.843994 
	C169.931839,330.251801 165.385178,329.891998 163.166794,326.094879 
	C160.512955,321.552460 162.064865,316.570099 167.415070,313.470764 
M169.130692,325.698120 
	C169.487411,323.268616 169.844116,320.839081 170.200851,318.409576 
	C168.899170,318.377167 166.496918,318.146576 166.461670,318.342285 
	C165.968948,321.077942 164.303848,324.279480 169.130692,325.698120 
z"/>
<path fill="#2C3556" opacity="1.000000" stroke="none" 
	d="
M154.697220,283.053711 
	C157.564285,282.860840 160.039230,282.860840 162.514175,282.860840 
	C162.739853,283.326752 162.965546,283.792694 163.191223,284.258606 
	C161.399200,285.086517 159.607162,285.914459 156.576172,287.314758 
	C159.117081,288.271515 160.905457,288.944916 164.380447,290.253357 
	C161.325287,291.335144 159.530884,291.970490 157.736496,292.605835 
	C157.611572,292.999115 157.486633,293.392395 157.361710,293.785645 
	C158.678711,294.172760 160.058075,294.426086 161.288269,294.999420 
	C161.975235,295.319550 162.414474,296.171234 162.965332,296.783386 
	C162.387497,297.196014 161.831055,297.923645 161.227966,297.964600 
	C159.086700,298.110046 156.929504,298.021332 154.305099,298.021332 
	C154.305099,293.013519 154.305099,288.130066 154.697220,283.053711 
z"/>
<path fill="#80CBC8" opacity="1.000000" stroke="none" 
	d="
M202.234192,327.633057 
	C199.895248,326.631165 197.681503,326.009888 194.954132,325.244446 
	C197.233444,321.836731 199.393585,318.402710 201.807480,315.157410 
	C202.339890,314.441620 203.955063,313.901123 204.733215,314.190369 
	C205.399017,314.437836 205.757828,315.957733 205.939896,316.970978 
	C206.372498,319.378632 206.619919,321.819611 207.024109,324.864380 
	C205.868500,325.197021 207.115829,330.889984 202.234192,327.633057 
z"/>
<path fill="#80CBC8" opacity="1.000000" stroke="none" 
	d="
M180.119385,317.947327 
	C181.243988,313.848419 183.941727,312.187347 187.227722,314.263153 
	C193.032379,317.929962 187.992630,321.603210 186.579559,324.990936 
	C187.766388,326.009094 188.819534,326.912567 189.872681,327.816040 
	C188.584335,328.216888 187.317871,328.835022 186.002502,328.967499 
	C184.045517,329.164642 182.053955,329.018585 179.468552,329.018585 
	C181.958771,325.050476 184.209351,321.464233 186.891556,317.190186 
	C183.639969,317.734955 181.910980,318.024628 180.119385,317.947327 
z"/>
<path fill="#80CBC8" opacity="1.000000" stroke="none" 
	d="
M149.202454,318.273895 
	C146.068054,319.451202 145.097839,317.935028 146.945648,316.086975 
	C148.334686,314.697723 151.689346,313.637573 153.136169,314.397400 
	C154.616577,315.174896 155.406693,318.344116 155.420700,320.473511 
	C155.430740,321.999603 153.665054,323.537384 152.581635,325.243073 
	C153.811554,325.830048 154.960953,326.378632 155.951965,326.851593 
	C156.008362,329.208862 154.745529,329.409882 145.610855,328.677155 
	C147.706741,325.868958 149.633698,323.563263 151.204880,321.036377 
	C151.776443,320.117157 151.499863,318.670624 151.610245,317.464661 
	C150.894272,317.645752 150.178299,317.826813 149.202454,318.273895 
z"/>
<path fill="#3B4361" opacity="1.000000" stroke="none" 
	d="
M219.357010,294.657288 
	C219.356308,291.718414 219.356308,289.239166 219.356308,286.470459 
	C218.332855,286.253448 217.355194,286.207306 216.539932,285.819672 
	C215.942154,285.535431 215.557419,284.803162 215.077728,284.270569 
	C215.739197,283.754211 216.380875,282.824463 217.065445,282.791748 
	C220.342560,282.635101 223.631287,282.721436 226.915894,282.721436 
	C227.135956,283.233704 227.356003,283.745941 227.576050,284.258209 
	C226.172592,285.076508 224.769119,285.894806 222.994812,286.929352 
	C222.994812,290.089325 222.994812,293.711304 222.994812,297.333282 
	C222.552811,297.614532 222.110825,297.895752 221.668823,298.177002 
	C220.898453,297.156982 220.128082,296.136932 219.357010,294.657288 
z"/>
<path fill="#1F284B" opacity="1.000000" stroke="none" 
	d="
M177.635452,256.021271 
	C177.659378,249.768921 177.659378,249.768921 181.860443,250.195618 
	C181.860443,256.562714 181.860443,262.952301 181.860443,269.697418 
	C180.660263,269.781342 179.453491,269.865692 177.635483,269.992798 
	C177.635483,265.305969 177.635483,260.910919 177.635452,256.021271 
z"/>
<path fill="#20294C" opacity="1.000000" stroke="none" 
	d="
M124.923157,290.000061 
	C125.520576,287.300323 126.118011,285.082733 126.715439,282.865173 
	C127.198357,285.033447 127.863274,287.181091 128.111984,289.375916 
	C128.351288,291.487823 128.318634,293.666748 128.075775,295.778320 
	C127.985527,296.562988 126.959740,297.240051 126.360580,297.966187 
	C125.883560,297.281677 125.077034,296.634338 124.994751,295.905304 
	C124.793022,294.117676 124.925278,292.292358 124.923157,290.000061 
z"/>
<path fill="#FEFEFE" opacity="1.000000" stroke="none" 
	d="
M172.495636,37.366043 
	C172.183350,37.104080 172.096100,36.690941 172.008850,36.277805 
	C172.304291,36.283630 172.599731,36.289452 173.013641,36.578491 
	C172.994965,36.979424 172.857819,37.097145 172.495636,37.366043 
z"/>
<path fill="#F5F5F7" opacity="1.000000" stroke="none" 
	d="
M277.793365,263.543213 
	C274.977325,266.089691 271.942688,266.737152 269.703613,264.043274 
	C268.387390,262.459686 267.616821,259.444305 268.161316,257.512817 
	C269.065582,254.304947 272.071960,253.172638 275.364685,254.260574 
	C278.913422,255.433136 279.796997,258.682953 277.793365,263.543213 
z"/>
<path fill="#E9E9ED" opacity="1.000000" stroke="none" 
	d="
M52.626030,253.373093 
	C55.122601,257.915649 54.636230,258.717957 49.391357,258.844330 
	C50.089474,256.719543 46.627216,252.972580 52.626030,253.373093 
z"/>
<path fill="#FEFEFE" opacity="1.000000" stroke="none" 
	d="
M114.780701,287.188171 
	C113.344734,287.716614 111.785301,287.716614 110.225861,287.716614 
	C110.323273,287.028107 110.420685,286.339600 110.518097,285.651123 
	C111.897804,285.987335 113.277519,286.323547 114.780701,287.188171 
z"/>
<path fill="#FEFEFE" opacity="1.000000" stroke="none" 
	d="
M177.513367,288.420410 
	C175.929657,288.255737 174.688370,287.796753 173.447083,287.337769 
	C173.622787,286.728333 173.798508,286.118927 173.974213,285.509491 
	C175.341064,285.944946 176.707916,286.380432 178.297821,287.165588 
	C178.299179,287.718872 178.077469,287.922485 177.513367,288.420410 
z"/>
<path fill="#F5F5F7" opacity="1.000000" stroke="none" 
	d="
M244.013672,288.460266 
	C245.096176,292.107605 243.579407,294.332123 240.557373,294.579468 
	C239.142960,294.695221 236.690445,292.898193 236.284088,291.507660 
	C235.883698,290.137543 237.120285,287.140350 238.279861,286.746948 
	C239.811035,286.227478 241.966858,287.549103 244.013672,288.460266 
z"/>
<path fill="#FEFEFE" opacity="1.000000" stroke="none" 
	d="
M195.607239,288.361053 
	C194.078430,288.238922 192.891953,287.795197 191.705475,287.351471 
	C191.869492,286.751770 192.033508,286.152039 192.197525,285.552338 
	C193.523666,285.933746 194.849823,286.315186 196.393829,287.034790 
	C196.390961,287.595123 196.170258,287.817291 195.607239,288.361053 
z"/>
<path fill="#F8FCFC" opacity="1.000000" stroke="none" 
	d="
M168.745331,325.792114 
	C164.303848,324.279480 165.968948,321.077942 166.461670,318.342285 
	C166.496918,318.146576 168.899170,318.377167 170.200836,318.409576 
	C169.844116,320.839081 169.487411,323.268616 168.745331,325.792114 
z"/>
</svg>