<?xml version="1.0" encoding="UTF-8"?><svg id="New_Layer" xmlns="http://www.w3.org/2000/svg" viewBox="0 0 748.55 441.83"><defs><style>.cls-1{fill-rule:evenodd;}</style></defs><path class="cls-1" d="m306.15.85c-1.3.5-2.3,1.6-2.3,2.5,0,.8-1.1,2-2.4,2.6-1.5.7-2.2,1.7-1.9,2.6.3.8-.4,2.1-1.6,2.9-1.1.8-2.1,2.4-2.1,3.5,0,1-.6,1.9-1.4,1.9-1.7,0-2.9,3.1-2,5.3.3.9-.3,2.3-1.5,3.4-1.2.9-2.1,2.2-2.1,2.7s-1,2.3-2.3,4-3.1,4.9-4.2,7.1c-1,2.2-2.5,4.5-3.4,5.2-1.4,1-1.4,1.5-.3,3.3,1.2,1.9,1.1,2.2-.6,2.7-1.3.3-1.8,1.1-1.5,2.2.2,1-.3,2.3-1.1,3-.9.8-1.6,2.2-1.6,3.2,0,1.1-1.1,2.9-2.5,4.1-1.5,1.3-2.5,3.2-2.5,4.8,0,1.5-.9,3.9-2.1,5.4-1.1,1.4-1.8,3-1.5,3.5s-.1,1.4-.9,2.1-1.5,1.8-1.5,2.6c0,.7-.8,1.8-1.7,2.3-1,.6-1.4,1.1-.9,1.1s.3.7-.4,1.5c-.6.8-.9,1.8-.6,2.4.4.5-.6,1.9-2.1,3.1-3,2.4-6.3,7.3-6.3,9.5,0,.8-.9,2-2,2.7s-2,2.3-2,3.5c0,1.3-.4,2.3-.9,2.3s-1.2.8-1.5,1.7c-.8,2.2-2.8,5.6-4.4,7.5-.6.8-.9,1.8-.5,2.2.4.3-.3,1.4-1.6,2.2-1.7,1.2-2.1,2.2-1.7,4,.4,1.5.1,2.6-1,3.2-1,.5-1.8,2.2-2,3.8-.2,1.5-1.5,3.8-2.9,5.2-1.8,1.6-2.4,3-2,4.3.5,1.4.2,1.9-1.4,1.9-1.5,0-1.9.5-1.4,1.6.4,1-.1,2.2-1.1,3-1,.7-1.5,1.7-1.2,2.2s-.1,1.5-.8,2.2c-2,1.6-5.8,8.9-5.1,10,.2.4-.2,1.3-1,2s-1.5,2-1.5,3-.6,2.3-1.4,2.9c-.7.6-1.1,2.2-.9,3.5.3,1.5-.2,3.1-1.4,4.3-1,1.1-1.9,2.6-2.1,3.4-.3,1.5-1.8,5.1-3.4,8.2-.5,1-.6,2.2-.2,2.8.3.6-.5,2.2-1.7,3.6-1.3,1.3-2.3,2.7-2.1,2.9.1.2-.1,1.2-.6,2.1-.8,1.4-1.2,1.2-2.8-1.3-2.7-4.1-4.5-6.3-7.6-9.2-1.6-1.4-2.8-3.4-2.8-4.4s-.7-2.1-1.5-2.4c-.9-.4-1.5-1.9-1.5-3.5,0-1.7-.6-3.2-1.5-3.5-.9-.4-2.5-2.5-3.5-4.8-1.1-2.2-2.4-4.8-2.9-5.6-2.3-4.2-3.1-6.1-3.1-7.2,0-.7-.9-1.9-2-2.6s-2-2.1-2-3.2-1.1-2.7-2.5-3.6c-1.5-1-2.5-2.6-2.5-3.9s-.6-3-1.4-3.7c-.7-.8-2.3-3.3-3.5-5.6s-3.4-5.7-5.1-7.5c-1.6-1.9-2.7-3.7-2.3-4.1.3-.3-.3-1.6-1.4-2.9-1.1-1.2-2.3-3.5-2.7-5-.4-1.7-1.6-3.1-3.1-3.7-1.7-.7-2.5-1.7-2.5-3.4,0-1.4-.4-2.8-1-3.1-.5-.3-1-1.5-1-2.5,0-1.6-1.6-5.4-4.2-10-.5-.8-1.5-2.9-2.2-4.5-.8-1.7-2.3-3.9-3.5-4.9-1.1-1-1.7-2.4-1.5-3.1.3-.7-.8-2.7-2.5-4.4-1.7-1.8-3.1-4.1-3.1-5.2,0-2.9-4.9-12-7.6-14.2-1.3-1-2.3-2.2-2.1-2.6.3-.9-3.6-8.5-4.5-8.9-.5-.2-.8-1.4-.8-2.6s-1.1-3.3-2.5-4.6-2.3-3-2.1-3.6c.3-.7-.9-2.6-2.6-4.3-1.6-1.6-2.7-3.4-2.4-4,.9-1.5-2.8-9.8-6.4-14.3-1.7-2-3-4.1-3-4.5,0-.5-1.3-1.7-3-2.6-1.6-1-3.5-2.4-4.3-3.1-3-3.1-5.4-2.8-9.7,1-3.2,2.9-3.8,3.9-2.9,5.1.9,1.1.8,1.7-.7,2.8-1.6,1.2-1.7,1.6-.5,2.4s1.2,1.2.2,2.5c-.9,1.1-1,1.6-.2,1.6.6,0,1.1.7,1.1,1.5s-.8,1.5-1.7,1.5c-1.3,0-1.4.3-.6,1.1.6.6.9,2.6.6,4.4s0,3.5.5,3.9c.6.4.9,1.3.5,2.1-.3.8,0,1.5.6,1.5,2,0,1.1,3-1.1,4-1.7.6-1.8.9-.6.9,1.4.1,1.6.9,1.3,4.6-.2,2.5,0,4.7.4,5,.9.5.6,8.5-.4,13.2-.5,2.2-.3,3.3.4,3.3,1.6,0,1.3,3-.4,3.6-1.8.7-2,5.1-.2,5.7.9.3.9.8-.2,2.1-1.2,1.4-1.2,1.8.1,2.9,2.7,2.1,3,4.7.7,5.6-2,.7-2,.8-.4,2.5,1.7,1.6,1.7,1.8,0,3-1.5,1.1-1.7,2.2-1.2,6.6.4,2.8,1.2,5.8,1.8,6.6.9,1.1.9,1.8-.1,2.9-.9,1.1-.9,2.2-.2,4.4.6,1.6.8,3.8.5,4.9s.1,2.2,1,2.5c1.6.6,1.2,5.7-.5,5.7-.6,0-.2,1.2.7,2.7,1.2,1.8,1.4,2.8.7,3.1-1.6.5-1.5,2.9.1,3.6.8.3.7.9-.7,2-1.8,1.5-1.8,1.6-.1,2.2,1.6.7,1.7.8.1,1.9-1.4,1.1-1.5,1.4-.1,2.5,1.8,1.5,2,3.7.3,4.2-1,.4-1,1,0,3.2.7,1.5,1,3.2.7,3.7s-.1,1.7.4,2.8c.8,1.4.7,2-.3,2.4-1.6.6-.9,6.5,1,8.5,1.8,1.7,1.8,2.9.1,3.9-1.8,1.1-2.9,5.4-1.7,6.8.6.7.5,2.6-.1,5-.6,2.1-.9,5.1-.7,6.6.3,1.5.1,2.6-.4,2.3-1.3-.8-.9.5,1,3.8,1.2,2.1,1.3,3.2.6,3.5-.7.2-1,1.2-.7,2.2s0,2.2-.7,2.6-.8,1.1-.2,1.8c1.4,1.9,2.1,5.6,1.1,6.3-.5.3-.6,1.6-.3,3,.4,1.4.2,2.4-.4,2.4-.8,0-.8,1,0,3.2.9,2.4.8,3.3-.1,3.6-.8.3-.9.8-.2,1.6s.7,2.4.1,4.4c-.5,2-.5,3.2.1,3.2,1.2,0,1.2,4.7-.1,5.5-1.5.9-1.2,4.5.5,5.1.8.4,1.5,1.1,1.5,1.8,0,2.1,12.3,8.2,14.2,7,.4-.3.8-1.3.8-2.3s.7-2.4,1.5-3.1c1-.8,1.2-1.8.6-2.9-1.2-2.2-2-12.1-1-12.6.7-.5.2-8.2-.8-9.8-.2-.4.1-1.4.7-2.2s.9-1.8.6-2.3c-.3-.6-.2-3,.3-5.5.5-3,.5-4.9-.2-5.6-.8-.8-.7-2.1.2-4.6s.9-4,.2-4.8c-.6-.8-.7-2.7-.1-5.2.6-2.6.5-4.2-.1-4.6-.7-.4-.7-2.4.1-6,2.2-10.3,2.2-11.7.6-15-1.9-3.9-1.9-3.4,0-5.4,1.3-1.2,1.4-1.9.4-3-1-1.2-1-1.8,0-3s1-2.1,0-4.5c-.7-1.6-1-3.7-.6-4.5.3-.8.1-2.7-.5-4.2-.7-1.9-.7-3.3.1-4.9.9-1.5.9-3.1.1-5.9-.6-2.3-.7-4.3-.2-4.9.6-.7.6-3.1,0-6-.5-2.6-.6-5.2-.3-5.7.2-.5-.1-2.8-.7-5.1-.7-2.4-1.1-4.9-1-5.6.1-.8-.2-1.9-.8-2.6-1.2-1.5-1.1-5.6.3-7.5,1.4-1.8,1.6-8.9.4-12.8-.5-1.8-.6-3.8-.2-4.5,1.2-1.9,1.2-10.1.1-11.6-.7-.8-.6-2.6.3-5.2,1-3.1,1-5.1.1-10-.7-3.4-.9-6.5-.6-6.8,1-1,4.5,3.7,4.5,5.9,0,1,.5,1.9,1,1.9,1,0,3,3.8,3.6,6.9.1.7,1.6,3.6,3.3,6.3s3.1,5.3,3.1,5.8c0,.4,1.1,1.5,2.5,2.4,1.5,1,2.5,2.6,2.5,4.1,0,2.7,4.6,11.6,6.6,12.8.8.4,1.4,1.3,1.4,1.9,0,.7,1,2.2,2.2,3.5,1.9,2,2,2.5.8,3.3-1.3.8-1.2,1,.3,1,.9,0,1.7.6,1.7,1.4,0,.7.9,2.5,2,3.9,1.5,1.8,1.7,2.7.8,3-.9.4-.6,1.1,1,2.4,1.5,1.2,2.1,2.5,1.7,3.5-.4,1.1.2,2.2,1.9,3.3,1.4,1,2.6,2.5,2.6,3.5s1.2,2.8,2.8,3.9c2.2,1.7,2.4,2.2,1.2,3s-1,1.3,1.3,3.1c1.5,1.2,2.7,3,2.7,4.1,0,1,.8,2.4,1.9,3,1,.7,1.6,2,1.4,2.9-.3,1,.6,2.8,2,4.1,1.3,1.3,2.7,3.6,3.1,5.1.3,1.5,1.5,2.9,2.5,3.3,1.1.3,2.4,1.9,3,3.5.5,1.7,1.5,3,2.2,3,.6,0,.9.7.5,1.5-.3.8.3,2,1.3,2.7,2.4,1.8,4.1,5.1,4.1,8.3,0,1.4.7,2.8,1.5,3.1.8.4,1.5,1.4,1.5,2.4s.8,2.1,1.7,2.4c1.5.6,1.5.8.3,1.6-1,.6-1.1,1-.3,1,1.5,0,4.3,5.2,4.3,7.9,0,1.1,1.1,2.8,2.4,3.7,1.4.8,3.9,3.8,5.7,6.5,1.7,2.7,4.4,6,6,7.3,1.6,1.4,2.9,2.9,2.9,3.5s.5,1.1,1.1,1.1.8.8.4,2c-.4,1.3,0,2.3,1.4,3.2,1.2.7,2.1,1.8,2.1,2.4s.8,2.2,1.9,3.5c1,1.3,1.8,2.7,1.7,3.1-.2,1.1,5.2,4.9,8.4,5.8,1.6.5,3.7.6,4.7.3,2.2-.6,5.3-6.9,5.3-10.9,0-1.6.6-3.8,1.4-4.9.7-1.1,1.6-3.7,1.9-5.9.3-2.1,1.3-4.6,2-5.5.8-.9,1.8-2.7,2.2-4.1.8-2.6,4-10.3,5.6-13.2.5-1,.9-2.8.9-4.1,0-1.2.7-3.2,1.5-4.4s1.2-2.8.9-3.6c-.3-.9.3-2.4,1.3-3.6,3.7-4,4.3-5.1,4.3-7.1,0-1.1.7-2.3,1.5-2.6.8-.4,1.5-1.4,1.5-2.4s.7-2.3,1.5-3,1.5-1.9,1.5-2.6c0-.8.5-1.4,1-1.4.6,0,1-1.1,1-2.4,0-1.4,1-3.2,2.2-4,1.2-.9,1.9-1.9,1.5-2.2-.4-.4.4-2.6,1.8-5,1.4-2.3,2.5-5,2.5-5.8,0-.9.8-2.1,1.9-2.7,1.1-.7,1.6-1.9,1.4-3-.3-1.1.1-2.1,1.1-2.5.9-.3,1.6-1.4,1.6-2.3,0-1,1.1-2.8,2.5-4.1s2.5-2.9,2.5-3.5c0-1.8,3.8-9,5.4-10.5.9-.7,1.6-1.8,1.6-2.6,0-.7.6-1.7,1.3-2.1,1.5-1,3.7-4.9,3.7-6.7,0-.7.7-1.9,1.5-2.6s1.5-2.1,1.5-3.2c0-1,1.6-4.4,3.5-7.4s3.5-6,3.5-6.7c0-.6.9-2.5,1.9-4.1,1.1-1.7,1.8-3.3,1.6-3.7-.3-.4.2-1.2,1-1.9s1.5-2,1.5-3,.7-2.3,1.5-3,1.5-2,1.5-3,.7-2.3,1.5-3,1.5-1.9,1.5-2.7c0-1.9,2.5-7.1,4.8-10.1,1.2-1.6,2.3-2.1,3.6-1.6,1.4.5,1.5.9.4,1.5-1.1.7-1,1.1.2,1.9,1.3.8,1.3,1.3.2,3-1,1.7-1,2.4.2,4.2,1.4,2,1.4,2.4-.2,4.1-1.3,1.5-1.4,2.1-.4,2.4.9.4,1,.8.2,1.8-.8.9-.7,1.7.5,2.8.9,1,1.5,3.2,1.4,5.9-.1,7.3.6,12.1,1.9,12.6,1,.3,1,.7.1,1.8s-.8,1.8.5,3.2c2,2.3,2.1,5.2.1,5.2-1.4,0-1.4.3-.2,2.7.8,1.6,1.2,3.4.9,4.2-.2.7.2,1.7.9,2.2,1.2.8,1.2,1,0,1.8-.9.6-1,1.1-.3,1.5.6.4.9,1.3.5,2.1-.3.8,0,1.5.6,1.5s1.1.7,1.1,1.5-.5,1.5-1.1,1.5c-.7,0-.8.7-.4,1.7,1.3,3.6,1.6,9.1.5,9.8-.8.5-.6,1.1.7,2.1,1.7,1.3,1.7,1.5-.1,2.9-1.1.8-1.7,1.8-1.3,2.1.4.4.2,1.3-.4,2.1-.8.9-.8,1.7,0,2.6.7,1,.8,2.9.3,5.9-.7,3.4-.5,5.3.6,7.3.9,1.7,1,3,.4,3.4-1.9,1.1-1.3,12,.9,16.3,1.9,3.8,1.8,7.8-.2,7.8-1.1,0,0,5.3,1.3,5.8,1.5.6.8,3-.9,3.5-1.6.4-1.6.5-.1.6,1.4.1,1.6.8,1.1,3.8-.3,2.1-.9,4.2-1.3,4.8-1.1,1.4-.7,7,.6,8.6.6.8,1.4,2.1,1.7,2.9.4,1.1.7.9,1.2-.8.8-2.5,4.3-3,5.2-.7.9,2.5-2.7,5.7-5.9,5.3-1.7-.3-2.5-.1-2,.6,1,1.7.8,4-.6,5.5-.9.9-1,1.7-.2,2.6.6.7.8,1.9.4,2.8-.3.8-.1,1.8.4,2.1.6.3.8,1.5.5,2.5s0,2.2.6,2.5c1.8,1.1,1.3,5.6-.5,5.6-1.5,0-1.5.2-.1,2.3,1.5,2.3,2,7.4.8,8.1-.4.3-.5,2.2-.3,4.4.5,5.2,6,10.7,11.8,12,4,.9,4.1.9,5.3-2.4.8-2.2,1-5.1.5-8.1-.5-2.7-.7-5.2-.6-5.6.2-.5.5-4,.8-7.9.3-4.9.1-7.3-.7-7.8-.6-.4-1.3-2.5-1.5-4.6-.2-2.2-.6-4.9-.9-6.2-.3-1.2-.2-2.2.2-2.2,1,0,1-11.1.1-12.6-.4-.6-.3-2.6.3-4.5,1.6-5.3,2-29.4.4-31.5-.9-1.3-.9-2.6-.2-5,.8-2.6.7-3.6-.7-4.9q-1.9-2-.2-3.8c1.2-1.2,1.2-2.2.1-7.2-.8-3.2-1.1-6.3-.8-6.9.4-.6.6-2.7.4-4.8-.2-2.6.2-4,1.2-4.4,1.1-.4,1.2-1.5.7-4.4-.4-2.2-.5-5.1-.3-6.5.3-1.3.2-3.3-.2-4.2-1-2.6-1.2-10.4-.2-11,.4-.2-.3-2.3-1.6-4.6-2.2-3.8-2.4-4.8-1.6-10.2.6-4.4.5-6.4-.5-7.5-.8-.9-1-2.5-.6-4,.3-1.4.3-3.2,0-4-1.8-3.9-2.6-7.7-2-10,.4-1.4.2-3.3-.4-4.2-.7-1.1-.6-2.1.2-3,.6-.8.7-1.9.2-2.8-.5-.8-1.2-4.8-1.6-9-.3-4.1-1-8-1.5-8.6-.4-.5-.2-3,.5-5.5.8-2.7,1.1-5.2.6-5.9-.5-.8-.6-2.6-.3-4.1.3-1.6-.1-3.6-1.1-5.1-.9-1.4-1.3-2.7-1-3.1,1.4-1.4-.8-5.7-4-7.6-3.5-2.2-6.7-2.5-10.3-1.1Z"/><path class="cls-1" d="m501.55,3.45c-.3.3-3.4.8-6.9,1-17.4.9-21.6.9-25.3.3-2.3-.4-4.5-.3-5.2.3-.7.5-2.5.7-4,.4-1.7-.4-3.6-.1-4.7.7-1.4,1-3,1.1-7.2.3-4.8-.8-6-.7-9.9,1.3-2.5,1.2-5,1.9-5.7,1.5-1.7-1.1-6.8-1.3-7.4-.3-.3.5-.9.7-1.4.4s-2,0-3.2.6c-2.6,1.4-7.1,1.3-9.9-.2-1.4-.7-2.5-.6-4.1.6-1.3.8-3.1,1.5-4.2,1.5s-3.4,1.6-5.2,3.6l-3.3,3.6,2.7,2.4c1.5,1.3,3.1,2.4,3.5,2.4.5,0,1.5.7,2.3,1.5,1.9,1.8,10.2,2,18.9.4,10.2-1.9,15.7-1.8,18.2.4,1.8,1.6,2,2.2,1,3.9-1,1.6-.9,2.2.7,3.3,1.8,1.3,1.8,1.6.4,3.2-1.7,2-1.3,4.3.7,4.3,1.7,0,1.6,5-.1,5.7-1,.4-1.1,1-.4,2.3,1.3,2.5,1.3,3-.4,3-2,0-3.1,2.1-1.6,3,.8.5.9,1.4.3,2.6-1,2.3-1,4.5.1,6.2.4.7.5,2.4.2,3.8-.4,1.6-.1,3,.9,4,2.3,2.3,2,7.5-.5,8.1-1.9.5-1.9.7-.6,2.8,1.1,1.6,1.2,2.5.4,3.3-1.6,1.6-1.4,9.7.2,11.6.8,1.1.9,1.6.1,1.6s-.9,1.3-.5,4c.5,2.9.3,4-.6,4-1,0-1,.3,0,1.5.7.8.8,2,.4,2.7-1.3,2-1,6.8.4,6.8,1.5,0,1.5-.1.1,3.9-.8,2.4-.8,3.5.1,4.7,1.1,1.2,1,1.7-.6,2.9q-1.9,1.5,0,3c1.1.8,1.5,1.5.9,1.5-.8,0-.7.9.2,2.7.8,1.6,1.1,2.9.5,3.1-.5.2-.6,1-.4,1.7.3.8.2,2-.2,2.7-1,1.5-.6,6.9.6,8.1.4.5.3,2.5-.2,4.5-.6,2-1,4.9-.9,6.4,0,1.5-.4,3-1,3.3-.5.4-.3,1.8.8,3.5,1.5,2.7,1.5,3.3.1,8.4-.8,3.1-1.2,5.6-.8,5.6s1.2,1.2,1.9,2.7c1.1,2.3,1,2.9-.4,3.9-1.2.9-1.3,1.3-.3,1.7.9.3.8.7-.5,1.2-1.7.7-1.7.8,0,2.1,1.7,1.2,1.7,1.4-.2,2.9-1.1.9-1.5,1.4-.9,1.1.7-.3,1.2.4,1.2,1.9,0,1.4-.6,2.5-1.2,2.5-.6.1.2,1.1,1.7,2.4,2.9,2.3,2.9,4.9.1,6-1.4.6-2,3.6-.6,3.6,1.2,0,1,8.4-.2,9.3-.7.5-.4,1.2.8,2.2,1.5,1.1,1.8,2.3,1.3,5.6-.3,2.3-1.1,4.8-1.9,5.5-1.4,1.4-7.8,1.9-13.8,1.1-2.2-.2-4.9.3-7.3,1.5-3.2,1.6-4.7,1.8-8.2,1-3-.6-4.7-.6-5.4.1-.6.6-1.1.8-1.1.4,0-1.2-5.3,1.9-7.8,4.6l-2.3,2.4,2.6,1.7c1.4.9,2.5,2.2,2.5,2.9,0,2.8,18.9,5.2,20.5,2.7.4-.6,1.5-.8,2.5-.5s2.1.1,2.4-.4c.7-1.1,14-1.6,27.7-.9,3.6.1,6.3-.3,7.3-1.1,1.3-1.1,1.9-1.1,3.1-.1,1.7,1.4,5,.6,4-1-.4-.7.2-.9,1.9-.4,1.4.3,4.1.1,6.1-.6,2.4-.8,4-.8,4.8-.2,1.9,1.6,11.7,1.1,11.7-.6,0-1,.6-1.2,1.8-.7,2.7,1.2,10.1,1.5,10.7.5.3-.5,1.5-.6,2.8-.1s3.9.9,5.9.9c2.9,0,3.5-.3,3.1-1.7-.2-1,.3-2.3,1.1-3,2.3-2,2-3.8-1.1-5.8-1.6-.9-3.7-2.5-4.8-3.4-1.5-1.4-4-1.8-11-1.9-17-.4-30.5.1-31,1.1-.8,1.2-8.2,1.2-9-.1-.3-.5-.7-4.1-.8-8-.1-3.8-.6-7-1.1-7-.8,0-.4-3.9,1-10.8.4-2,.2-3.8-.6-4.7-.6-.8-.8-1.9-.4-2.6,1.2-2,1.4-9.2.4-14.9-.7-3.7-.7-5.6,0-5.8.5-.2,1-.8,1-1.3,0-.6-.3-.8-.7-.6-.9.6-.9-7.1,0-8,.4-.3.2-1.4-.4-2.5s-.7-2.7-.3-3.6c1-2.6,1.3-10.2.3-10.8-.5-.3-.7-.8-.5-1.2s.1-2.6-.4-5c-.4-2.4-.3-4.5.2-4.8.9-.6.4-17.6-.7-19.3-.3-.6-.1-2,.5-3.1.8-1.5.8-3.1-.1-6-.9-3.1-.9-4.3,0-5.4,1.3-1.5.9-14.3-.5-17.9-.3-.9,0-2.5.7-3.4,1-1.2,1-1.5.2-.9-.7.4-1.3.3-1.3-.3,0-.5.5-1.3,1.1-1.7.6-.3.8-1.7.4-3.1-.3-1.4-.1-3.1.5-3.8,1.2-1.4.8-13.3-.4-15.4-.5-.8-.3-1.7.5-2.3,1.1-.7,1.1-1.1.2-1.5-1.5-.6-1.7-5.9-.3-6.8.6-.4,1-2.1,1-3.8v-6.1c.1-1.5-.4-3.4-1-4.1-.7-.9-.7-1.5-.1-1.9s.7-3.4.4-7.4c-.6-6.8-.6-6.9,2.4-8.1,2.6-1,7.4-1.4,18.3-1.1,10.9.2,30.7-.6,31.8-1.3.6-.5,1.2-1.5,1.2-2.3s.7-2.6,1.6-3.9c1.4-2.2,1.4-2.6-.2-5.5-1-1.6-2.6-3-3.5-3s-2.2-.7-2.9-1.5c-1.2-1.5-5.1-2-6.3-.9Zm-47.6,183.7c-.1,1.2-1.5.9-1.9-.4-.3-.6.1-1,.8-.8.6.3,1.1.8,1.1,1.2Z"/><path class="cls-1" d="m684.65,39.45c-.4.3-8,.8-17,1-20.8.5-27,1.7-32.5,6.2-2.4,1.9-4.3,4.1-4.3,4.8,0,.8-.6,1.4-1.4,1.4-2,0-6.6,6.5-6.6,9.4,0,1.4-.4,2.6-.9,2.6-2.2,0-3.4,12.3-1.6,15.7.8,1.6,1.5,3.6,1.5,4.6,0,.9.6,2.6,1.3,3.8,1,1.7.9,2.2-.7,3.5-1.2.8-1.5,1.4-.7,1.4,1.1,0,1.1.3.1,1.5-1.1,1.3-1,1.8.5,2.9,1.3.9,1.5,1.5.6,2-.6.4-.9,1.2-.6,1.7.4.5.3,1.5-.2,2.1-.4.7-.8,1.9-.8,2.7,0,1.8-6,5.2-8,4.5-.8-.3-2.4.5-3.8,2-1.3,1.4-3.4,2.6-4.6,2.6-2,0-3.6,1.1-8.5,5.7-1.3,1.3-3,2.3-3.8,2.3-.9,0-2.3,1.1-3.2,2.5s-2.3,2.5-3.1,2.5c-.9,0-2.3,1.6-3.2,3.5s-2,3.5-2.5,3.5c-.4,0-.8.6-.8,1.3,0,.8-.9,2.2-1.9,3.1-1.1,1-2.3,3.1-2.6,4.8-.4,1.6-1.3,3.2-2.1,3.5-2,.8-4.5,6.1-3,6.7.8.3.8.7,0,1.3-.7.5-1.1,3.5-.9,7.5.1,4.6-.2,6.9-1.1,7.2-1.4.5-.8,8.2.8,10.3.5.6.5,1.4.1,1.6-.7.5-.9,5.1-.3,6.7.1.3.2.9.1,1.4-.1.4.4,1.4,1,2.2.9,1.1.8,1.8-.1,2.9-1,1.2-1,1.8,0,3.1.8.8,1.5,2.5,1.6,3.8.4,3.4,4.2,8.5,11.4,15.1,3.6,3.2,6.9,6.5,7.3,7.2s1.6,1.3,2.6,1.3,2.6.9,3.6,2,2.4,2,3.2,2,2.1.6,2.9,1.4,3.6,1.8,6.2,2.2,7,1.5,9.7,2.5c4.3,1.6,5.3,2.5,6.4,5.6.9,2.4,1,3.8.4,4-.7.3-.8,1.8-.1,4.5.7,3.1.6,4.3-.4,4.9-.7.5-1.1,2.1-1,3.8.2,1.6-.1,3.9-.7,4.9-.8,1.5-.7,2.3.4,3.2,3.3,2.8-1,12.3-7.8,17.3-5.6,4.1-3.9,3.8-24.5,3.6-2.4,0-5,.5-5.8,1.2-.9.8-3.2.9-7.1.3-10.7-1.4-47.1-2.5-47.8-1.3-.5.8-20.5.3-23.2-.6-1.4-.5-2.3-.3-2.3.3,0,.7-1.8,1-4.5.9-2.5-.1-4.5-.6-4.5-1.1,0-.6-.6-.2-1.3.8-1.1,1.5-2.3,1.6-8.2,1.1-11.9-1.1-16.9-1.1-19.5-.2-3.5,1.2-22.2,1.9-44.5,1.7-49.1-.4-56.1-.6-57.3-1.4-.8-.4-9.3-1-19-1.2-9.7-.2-19.3-.6-21.3-.9-2.3-.4-4-.2-4.4.5-.7,1.2-6.2.5-8.1-1.1-.7-.6-2.2-.5-3.7.2-2.2,1-3.1.9-5.2-.5-1.8-1.2-3-1.4-4.3-.7-.9.5-2.8,1-4.2,1s-4.7.4-7.3.7c-3.7.5-5.2.2-6.7-1.1-1-.9-2.1-1.2-2.4-.7-.7,1.2-5.6,2.2-5.6,1.1,0-1.5-3.6-1.9-9.4-.9-3.7.6-6.5.6-7.7,0-2.2-1.2-4.9-.3-4.9,1.7,0,1.1-.8,1.2-3.7.7-2.1-.4-4.9-1.1-6.3-1.7-3.7-1.4-9.7-1.8-12.4-.7-1.6.6-3.9.4-7-.5-4.6-1.4-7.6-1.1-7.6.6,0,.5-1.1.7-2.5.3-1.6-.4-2.5-.2-2.5.5,0,.9-.6.9-2.2,0-2.7-1.4-10.9-2-12.3-.8-.6.4-2.8.4-5-.1-2.4-.5-4.6-.5-5.7.1-1.3.7-3,.7-5.3-.1-2.2-.7-4-.8-5.2-.2-1,.6-3.9.8-6.6.5-2.6-.3-4.7-.1-4.7.4s-6.6.9-15.2,1c-8.4.1-16,.2-16.8.3s-6.9-.3-13.5-.9c-8.2-.6-13.3-.6-16.2.1-3.3.8-5.2.7-8.7-.5-3.3-1.1-5.5-1.3-7.7-.7-1.8.5-3.7.6-4.3.3-1.6-1.1-23.6-.9-23.6.1,0,.5-2.6.6-5.7.2-11-1.3-13.8-1.6-18.8-2-2.7-.2-7.2-.9-9.8-1.5-2.8-.7-7.6-.9-11.3-.5-7.6.8-10.7,3.5-10.2,8.8.2,2.5,1.1,3.5,4.8,5.4,3.6,1.9,5.5,2.2,9.6,1.7,2.8-.3,6.3-.1,7.9.5,2,.7,3,.8,3.5,0,.4-.7,1.6-.7,3.9.1,1.7.6,3.5.9,3.8.6.3-.4,1.4-.2,2.4.4,1.7.9,10.6,2.1,13.9,1.9,2.7-.2,15.3-.1,25.3.2,6.2.3,9.7,0,9.7-.7,0-.5.4-.4.9.4.5.7,1.1.9,1.4.4.6-.9,4-.9,15.5.2,5.1.5,7.7.3,8.7-.5,1.2-1,1.8-1,2.9-.1,1.2,1,10.2,1.6,18.4,1.2,1.2-.1,3.1-.1,4.2-.1h3.3c.6-.1,4.6,0,8.9.2,4.2.2,7.4-.1,7.1-.6-.3-.4.8-.5,2.4-.2,1.8.4,4.9,0,7.8-1,3.8-1.2,5.6-1.4,8.4-.6,5.5,1.7,14,2.2,14.7,1.1.3-.6,2.3-.9,4.3-.7,2,.3,4.9.1,6.5-.3,1.6-.5,3.4-.5,4-.1,1.2.8,7.7.7,16.9-.2,3.3-.3,6.4-.3,7,.1,1.1.7,15.3,1.6,23.2,1.5,1.7-.1,10.5-.2,19.7-.3,11.5-.2,17.2.1,17.9.8s2.1.8,3.3.4c2.1-.7,4.9-.6,30.1.6,12.6.6,24.4.8,27.8.3,2.3-.2,21.4,1,22.8,1.5,1.2.5,5.5.2,8.4-.5.6-.1,1.5-.1,2,0,.6.1,3.3.1,6,.1,2.8-.1,7.5.3,10.5.8,3.9.6,5.7.6,6.2-.3.6-.8,1.3-.8,2.8.1,2.3,1.5,4.4,1.7,3.5.4-.3-.6.7-.6,2.6-.1,1.8.5,3.5.8,3.8.5.4-.2,3.4,0,6.7.4,3.3.5,6.6.5,7.6,0s2.8-.5,4.4.1c2.1.8,3.3.7,6-.9,1.9-1.1,3.4-1.6,3.4-1.1s.6.7,1.4.4,2.4-.1,3.5.5c1.3.7,2.2.8,2.6.1.3-.5,3-1,5.8-1.1,2.9,0,7.5-.5,10.2-1,2.8-.5,5.5-1,6-1,1.7,0,10.9,1.9,12.8,2.6,1.1.5,1.7.2,1.7-.7,0-1.3,2.2-1.5,13.8-1.2,7.5.2,14.6.4,15.7.4,1.1.1,4.2-.1,6.9-.4,2.8-.3,5.6-.1,6.2.5.9.7,1.9.7,3,.1,1-.5,2.9-.6,4.4-.2s3.3.4,3.9,0c.7-.4,3.1-.3,5.4.1,5.5,1.1,5.9,1.1,5.3,0-.3-.5.4-1.1,1.7-1.5,1.2-.3,2.3-.1,2.5.4s.9.7,1.6.4c.6-.2,2.8.2,4.8,1,2.6,1.1,7.1,1.5,17.9,1.4,7.9-.1,15,.1,15.7.6,1.7,1,6.5-.2,5.7-1.4-.3-.6.1-1,.9-1s1.8.4,2.1,1c.9,1.5,8.1,1.2,9.7-.4.8-.7,2.9-2.1,4.7-3,3.4-1.8,12.1-10.3,12.1-11.9,0-.5.9-2,2-3.4s2-3.6,2-4.8.6-2.8,1.4-3.5c.8-.6,1.2-1.8.9-2.6s.1-4.5.8-8.2c.8-3.7,1.2-8.2,1-10-.1-1.8.3-3.9.9-4.7.7-.8.8-2,.4-2.7-.5-.7-.9-2.7-1-4.3-.1-1.7-.4-3.9-.8-5-.6-1.8-.1-2.1,5.5-3.2,3.4-.7,6.5-1.7,6.9-2.3.4-.7,1.6-.9,2.8-.6,1.6.5,2.5.1,3.7-1.8,1.2-1.8,2.9-2.7,6.1-3.2,3-.4,4.5-1.2,4.9-2.5.6-1.8,1.6-2.3,3.1-1.7.4.2,1-.7,1.5-2,.5-1.2,1.7-2.2,2.7-2.2,1.9,0,6.8-4.9,9-9.1.7-1.3,2.2-4,3.2-5.9,3.7-6.7,6-14.1,6-19,0-2.7.5-5.2,1.1-5.5.6-.4.7-1.9.4-3.5-.4-1.6-.1-3.9.5-5,.9-1.6.9-2.5.1-3.3-.6-.6-1.1-2.1-1.1-3.3s-.6-2.7-1.4-3.4c-.8-.6-1.2-1.8-.9-2.6s0-2-.6-2.8c-.7-.8-1.1-3-.9-4.9.1-2.1-.6-4.6-1.7-6.3-2.9-4.3-4.3-6.6-5.4-9.2-.6-1.2-1.5-2.2-2.1-2.2-.5,0-1-.6-1-1.4,0-.7-3.7-5-8.2-9.6-8.9-8.7-19.5-15-25.7-15-1.7,0-4.9-.7-7.1-1.6-3.3-1.3-4-2.1-4-4.3,0-1.5.5-3.2,1.1-3.8.9-.9.8-1.8-.4-3.6-1-1.6-1.2-2.8-.6-3.4s.6-2-.1-3.9c-.7-1.6-.9-4.6-.6-6.6.4-2.1.2-4-.4-4.3-.8-.5-.8-1.1,0-2,.6-.7.8-2,.4-2.9s-.1-1.6.6-1.6c.9,0,.9-.4.2-1.3-1.5-1.9,1.8-8.1,4.6-8.5,1.2-.2,2.2-1,2.2-1.9,0-.8.6-1.3,1.2-1.1.7.3,1.8,0,2.4-.7.6-.6,3.8-1.1,7-1,3.9,0,6.4-.4,7.4-1.4,1.3-1.3,1.5-1.2,1.8.3.3,1.3.7,1.5,1.8.5.9-.8,3.4-.9,7.6-.5,3.5.4,7.3.7,8.6.6,5.3-.1,7.1,0,13.3.3,3.7.2,7,.7,7.5.9.5.3,5.4.7,10.9.9,7.6.3,9.9.1,9.8-.9-.3-1.2,1.9-1.7,3-.6.8.9,13.7,1.5,15.8.9,2-.7,4.3-7.6,3.4-10.4-1.2-4-4.7-5.3-15.2-5.5-5.4-.1-10.3-.5-10.9-.9-.7-.3-3.7-.2-6.8.4-4.3.8-8.2.7-16.4-.5-5.9-.8-11.4-1.7-12.3-2.1-.8-.3-1.8-.3-2.1.1Zm-28.6,88.1c5.1,2.3,10.8,7,10.8,9.1,0,.4.9,1.3,2,2s2,1.8,2,2.4c0,.7,2.1,3.4,4.7,6,3.4,3.5,4.2,4.8,3,4.8-1,0-1.5.4-1.2,1,.6,1,1.5,7,1.6,10.7.1,1.3.5,2.3,1,2.3s1.4,1.2,2,2.7c.8,2.1.7,3-.4,3.8-1.4,1.1-1.1,3.5.6,4.7.7.4.7,1.1-.1,2.1-.7.8-1.3,2.6-1.4,4.1-.1,1.4-.5,2.6-.8,2.6s-.7,1.9-.7,4.2c-.1,2.4-.7,4.4-1.3,4.6-.5.2-.8.8-.4,1.3.3.5.1.9-.4.9s-1.3,1-1.7,2.2c-.4,1.3-.8,2.5-.9,2.8s-.5,1.4-.9,2.5-2.8,3.6-5.2,5.5c-2.5,1.9-4.5,4.1-4.5,4.7,0,.7-1,1.3-2.1,1.3-2.3,0-8.9,3.7-8.9,4.9,0,.5-2.5.8-5.5.7-3,0-5.5-.1-5.5-.1,0,0,.4-1.6,1-3.5.7-2.5.7-3.6-.3-4.2-.9-.6-.9-1.2.1-2.8,1-1.7,1-2.3-.2-3.6-1.2-1.2-1.3-1.9-.4-3.4s.9-2.4-.1-4.4c-1.2-2.1-1.2-2.8-.1-4.1,1.1-1.4,1.1-2.1-.3-4.4-1.4-2.4-1.4-3-.2-4.8,1.1-1.5,1.1-2.9.4-6.4-.6-2.4-.7-6-.3-7.9,1.3-7,1.4-9.4.2-10.2-1-.6-1-1.2,0-2.8.9-1.5,1-2.6.1-4.1-.6-1.1-.8-2.8-.4-3.7,1.3-3.2.9-15-.5-16.7-1.1-1.3-1.1-2.1-.2-3.6.7-1.1.9-3.1.6-4.5l-.7-2.7,4.9.7c2.7.4,7.5,1.9,10.6,3.3Zm-32.7,2.5c-.4,1.7-.2,3.5.5,4.3s.8,2,.4,2.7c-1.5,2.4-1.3,8.8.3,9.7,1,.5,1.3,1.3.7,2.2-1.4,2.3-1.5,5.2-.2,6,1,.6.9,1.4-.4,3.7-1,1.6-1.4,3.2-1.1,3.6,1.3,1.3,1.4,5.8.2,7.3-1,1.2-1,1.6.2,2.4s1.2,1-.1,1.9c-1.2.8-1.3,1.3-.2,3,.7,1.2.8,2,.2,2-.5,0-1,.9-1,2s.7,2,1.5,2c1.9,0,1.9.5,0,3.4-1.6,2.5-1.4,12.1.4,13.9.6.6.6,1.6-.2,2.8-.9,1.5-.9,2.3,0,3.8s.8,2.2-.5,3.5c-1.1,1.1-1.2,1.6-.4,1.6s1.2.8,1,1.7c-.1,1,.1,2.3.4,2.9.4.6.2,2.3-.5,3.8-1.3,2.9-1.2,2.9-10.9,1.1-4.9-.8-16.5-7.3-19.2-10.7-1.4-1.8-3.3-4.1-4.2-5s-1.4-2.3-1.1-3.1.1-1.9-.5-2.5c-1.4-1.4-1.9-7.2-2.1-23.2-.1-11.3.2-14,1.6-16,.9-1.4,1.7-3.7,1.7-5.2,0-1.6.9-3.7,2-4.8s2-2.4,2-3c0-.5,1.1-1.7,2.5-2.6s2.2-2.1,1.9-2.6c-.7-1,5.4-7.8,6.9-7.8.5,0,2-1.1,3.3-2.5s3.7-2.8,5.4-3.1c1.6-.4,3-1.2,3-1.8,0-.8,1.3-1.1,3.6-.8,3.3.4,3.5.6,2.9,3.4Z"/><path class="cls-1" d="m129.85,326.75c0,.5-1.8,1.1-4.1,1.5-2.9.5-5.3,1.8-8.2,4.6-2.2,2.2-4.4,4-4.8,4-.5,0-1.1,1.1-1.5,2.5-.3,1.3-1.2,2.9-2,3.6-.8.6-1.4,2.1-1.4,3.3s-.9,2.7-2,3.4c-2.3,1.4-2.8,6.8-.7,7.5.8.3.5,1.2-1.1,3-1.9,2-2.2,2.9-1.3,4.5.8,1.5.8,2.2-.2,2.5-.9.4-.9.6.1.6,1.6.1,1.5,2.8-.2,3.8-2.2,1.3-2.8,4.9-1.1,6.3,1.8,1.5,2,4,.3,4-.9,0-.8.4.2,1,1.1.7,1.2,1.2.4,1.7-1.6,1.1-2.1,6.7-.8,8.4.6.8,1,3.5,1,6.1-.1,2.7.2,4.8.5,4.8.4,0,.5.8.2,1.8-.2,1,.2,2.4,1.1,3.1.8.7,1.3,1.8,1,2.6-.3.7,0,1.6.6,2,.9.6.9,1-.1,1.6-1.1.8-.9,1.3.9,2.9,1.3,1.1,2.1,2.4,1.7,3-.6.9.6,2.7,5.6,8.8.5.7.7,1.7.4,2.2s.5,1.5,1.9,2.2c1.4.6,2.6,1.5,2.6,2,0,.4.5.8,1.2.8.6,0,1.9.7,2.9,1.6,2.4,2.2,18.3,3,17.5.8-.3-.8,0-1.4.8-1.4.7,0,1.9-.7,2.6-1.5s2.3-1.5,3.7-1.5c1.5,0,2.2-.4,1.8-1.1-.4-.6.3-2.1,1.5-3.4s1.9-2.8,1.6-3.3c-.3-.6,0-1.2.8-1.5.7-.3,1.6-2.1,2-4s1.3-4.1,2.1-4.7c.9-.7,1.3-2,1-3-.3-.9.2-3.3,1-5.3.9-2.1,1.3-4.8.9-6.2-.4-1.8-.1-2.7,1-3.1s1.6-1.8,1.6-4.4c0-2.2.4-4.1.8-4.4,1-.6.9-11.7-.1-13.3-.4-.6-.3-3.3.3-5.9.9-3.9.8-5.1-.6-7.1-.9-1.5-1.4-3.6-1.1-5.2.3-1.5-.1-3.3-.8-4.1-.8-.9-1.7-3-2-4.9-1.2-7.2-5.4-11.9-17-19.5-6.4-4.2-12.5-6-12.5-3.7Zm8,17.4c0,.8.9,2.2,2,3.2,1.2,1.1,2,3.1,2,5.1,0,1.8.4,3.4.9,3.6.6.1,1.1,2.4,1.3,5,.2,2.5.6,4.4.9,4.2s1.2.7,1.9,2c.9,1.8.9,2.8,0,4.6-1.6,3-2,9.2-.7,10.9.9,1,.7,1.6-.7,2.7-1.7,1.2-1.7,1.4-.3,2,2.1.8,2.2,3.4.2,3.4-1,0-1.5,1.1-1.6,3-.1,2.9-.4,4.7-.9,5.2-.1.2-.3,3-.5,6.3-.1,3.2-.8,6.1-1.4,6.3s-1.1,1.3-1.1,2.5-.9,2.8-2,3.5c-1.2.7-1.8,1.6-1.6,2.1.3.4-.6,1.9-1.9,3.1-2.3,2.1-2.7,2.2-5.1,1-2.9-1.6-5.4-5.8-5.4-9,0-1.2-.7-3.5-1.6-5.2-1.2-2.4-1.4-3.6-.6-4.9.9-1.3.7-2-.4-3-1-.8-1.3-2.1-.9-3.7.3-1.4,0-3.4-1-4.8-1.3-2-1.3-3-.3-6.8.9-3.4.9-5.4,0-8.2-.9-3.1-.9-4.1.3-5.4.9-1,1.5-3.6,1.5-6.2s.7-5.9,1.5-7.4c.8-1.6,1.5-3.9,1.5-5,0-1.2.7-2.7,1.5-3.4s1.5-1.8,1.5-2.5c0-1.7,6-5.5,8.8-5.5,1.2,0,2.2.6,2.2,1.3Z"/><path class="cls-1" d="m397.95,329.25c-.7.8-1,1.9-.7,2.4.3.6-.5,1.3-1.9,1.6-2,.5-2.5,1.3-2.5,3.6s-.5,3-1.9,3-1.8.5-1.4,1.9c.2,1-.3,2.5-1.1,3.4-.9.8-1.6,2.3-1.6,3.1,0,.9-.6,1.6-1.2,1.6-.9,0-.8.4.2,1,1.3.8,1.3,1.1.1,1.9-.7.5-1.1,1.5-.9,2.2.3.8-.1,2.7-.9,4.2s-1.1,3.2-.7,3.8c.3.6-.3,1.7-1.5,2.5s-2.1,2.2-2.1,3-.5,1.4-1.1,1.4-.9,1-.8,2.2c.3,2.9-1,8.9-2.3,10.5-.5.7-.8,2.2-.6,3.5s-.4,2.8-1.2,3.5c-1,.9-1.1,1.2-.2,1.3,1.9,0,1.4,3.2-1,5.7-1.7,1.8-2.3,3.9-2.6,8.8-.3,5.2-.8,6.5-2.1,6.5-.9,0-1.2.3-.6.8.6.4,1.1,2.2,1.3,3.9.1,2.5-.2,3.3-1.4,3.3-1.4,0-1.4.3-.3,1.6.8,1,.9,1.8.2,2.2-2.9,1.9-4.3,8.2-1.8,8.2.8,0,2.2,1.1,3.1,2.5s2.5,2.5,3.6,2.5,2.8.4,3.8,1c1.5.8,2,.4,3-2,.7-1.7,1.9-3,2.6-3,.8,0,1.4-1,1.4-2.4,0-1.3.6-2.6,1.3-2.8.6-.3,1.3-2.2,1.4-4.4.1-2.1.4-5,.6-6.4.3-1.4.5-3.3.6-4.4.1-1.6.6-1.8,4.4-1.2,12.2,2,17.5,2.3,21.3,1.3,4.3-1.1,9.9-.3,8.9,1.3-.3.6-.1,1,.4,1,.6,0,1.1.6,1.1,1.4s.7,1.7,1.5,2c.9.3,1.5,1.1,1.4,1.8-.7,3.9,5.7,11.6,11.3,13.5,5,1.9,5.6,1.7,7.4-2.5,1.8-3.8,1.9-6.9.3-8.8-.5-.6-.6-1.4-.2-1.7.3-.4-.3-1.7-1.4-3-2.7-3-6.4-12.4-5.6-14.4.4-.9.2-1.4-.3-1-.5.3-1-.2-1.1-1.1-.2-4-6.2-24.5-7.7-26.1-.9-1-1.6-2.7-1.6-3.8s-.7-2.6-1.6-3.4c-1.1-.9-1.4-2.2-1-4.4s.2-3.6-.8-4.4c-1.2-1.1-2.6-6.1-3.1-12.1-.4-4.5-3.2-10.5-5.4-11.6-1.1-.6-2.9-1.8-3.9-2.7-1-1-3.1-1.7-4.6-1.7s-3.7-.7-5-1.5c-2-1.4-2.5-1.4-3.5-.1Zm7.9,26.6c0,.5-.4,1-1,1-.5,0-1-.5-1-1,0-.6.5-1,1-1,.6,0,1,.4,1,1Zm.4,3.9c.4.5,0,1.2-.6,1.4-.8.3-.6.6.5.6,1.8.1,2.5,2.1.7,2.1s-1.1,4.9.9,5.9c1.3.7,1.7,1.8,1.4,3.4-.3,1.4,0,2.8.6,3.1.6.4,1.1,1.5,1.1,2.4s.7,3,1.5,4.6c.8,1.5,1.2,3.2.9,3.8-.3.5.3,1.6,1.5,2.4,1.2.9,1.9,2,1.5,2.5-.3.5,0,1.7.8,2.6,1.2,1.5,1,1.6-1.4.9-1.6-.3-2.8-.3-2.8.2s-1.5.9-3.2.9c-1.8,0-5.4.3-8.1.5-7.6.7-10.8-3.3-7.5-9.5.6-1.2,1.1-3.6,1-5.3-.1-1.8.5-3.8,1.3-4.4.8-.7,1.5-1.9,1.5-2.6,0-.8.4-2.2.9-3.2,1.8-3.6,3-6.8,3.6-10,.6-3,2.7-4.3,3.9-2.3Z"/><path class="cls-1" d="m59.95,333.45c-2.4,1.3-5,3.3-5.8,4.4s-2.1,2-2.9,2-1.3.4-.9.9c.3.5-.6,1.8-2,2.9s-2.5,2.7-2.5,3.6-.9,2.5-2,3.6c-1.2,1.2-1.5,2-.7,2,.8.1.7.4-.3,1.3-.9.7-1.4,2.4-1.2,3.9.2,1.9-.1,2.8-1.1,2.8-.9,0-1.3.9-1.2,2.5.2,1.5-.3,2.9-1.3,3.5q-1.6.9.1,1c1.3,0,1.7.8,1.7,3.4,0,1.9-.4,3.8-1,4.1-1.4.9-1.3,6.2.2,7.1.7.5.5,1.1-.7,2.1-1.1.7-1.4,1.3-.7,1.3.6,0,.9.6.6,1.4s0,1.7.6,2.1c.9.6.9,1-.1,1.6-1.1.7-1.1,1.1-.1,1.7.8.6,1.1,2.7.7,6.9-.3,4.4-.1,6.4.9,7.2.8.7,1.2,2.1.9,3.1-.3,1.1,0,2,.6,2s1.1.6,1.1,1.3c0,1.8,10.5,12.7,12.3,12.7.8,0,2,.7,2.7,1.5s2.3,1.5,3.5,1.5c1.3,0,2.5.6,2.8,1.4.7,1.9,6.9,3.6,13,3.6,2.6,0,4.7.5,4.7,1.1,0,.5.5.7,1,.4.6-.4.9-1.2.8-1.8-.1-.7.4-2.3,1.1-3.5,1.9-3.4-.2-8.1-4-8.9-1.5-.3-3-1.1-3.3-1.9s-1.5-1.4-2.6-1.4c-3,0-9.1-2.7-11.8-5.2-3.1-3-5.2-7.5-5.2-11.4,0-1.8-.4-3.5-1-3.9s-.6-1.5,0-3.1c.7-1.7.6-3.2-.1-4.6-.6-1.1-.9-2.9-.6-3.9.3-1.1.2-3.3-.3-4.9-.6-1.9-.4-3.4.6-4.8.7-1.1,1.1-2.1.9-2.4-.9-.9,1.7-13.3,3.1-14.9.8-.8,1.4-2.3,1.4-3.2s.5-1.9,1-2.2c.6-.3,1-1.5,1-2.7,0-1.6.5-1.9,2.1-1.5,2.8.8,5.6-.3,3.8-1.4-2.4-1.4-.1-2.2,3.2-1,4.7,1.6,10.3,1.5,9.6-.3-.3-.8.1-2,.9-2.6,2.7-2.3,1.5-4.9-4.1-9-4.6-3.4-6.1-4-10.2-3.9-3.1,0-6.4.9-9.2,2.5Z"/><path class="cls-1" d="m322.55,331.95c-1,.6-2.8.8-4.1.5-3.2-.8-6.5.4-7.2,2.6-.3,1.1-1.9,2.4-3.5,3-1.6.5-2.9,1.7-2.9,2.5s-.9,1.7-2.1,2c-1.7.5-2,1.1-1.4,3.9.3,1.9.1,4.3-.6,5.5-.9,1.7-.8,2.3.2,3,1.2.7,1.1,1.1-.1,2-1.1.8-1.2,1.2-.2,1.6,1.5.6,1.6,4.9.2,5.8-.8.5-.7,1.1.1,2.1.9,1.1.9,1.8.1,2.6s-.8,1.7-.1,3.1c.8,1.3.8,2.2,0,3-1.6,1.6-1.3,3.8.7,5.3,1.1.9,1.2,1.3.4,1.4-.9,0-1,.5-.3,1.8s.7,2.2,0,2.9c-.8.8-.8,1.3,0,1.7.7.5.7,1.5.1,3.1s-.6,2.5,0,2.5c.5,0,.7.7.3,1.6-.3.9,0,2,.7,2.4,1.1.7,1.2,1.6.2,4.6-.8,2.6-.8,4.2-.1,5s.7,1.4,0,1.8c-.7.5-.6,1.5.1,3.2.9,2,.9,2.7-.2,3.4-.7.4-1,1.5-.7,2.4.4.9.2,1.6-.3,1.6-1.1,0-.1,6.4,1.2,6.8,1.4.6.9,3.2-.7,3.2-.8,0-1.5.4-1.5,1,0,.5.4,1,.9,1,.6,0,2.3,1.4,4,3.2,1.6,1.7,3.8,3.3,4.8,3.4s2.7.5,3.8.9c2.1.6,2.3.4,6-7.5,1.2-2.7,1.3-3.9.4-5.6-.8-1.6-.8-2.7,0-4.2.7-1.4.8-2.3.1-2.7-1-.6-.3-5.3,1-6.8.4-.4,2.6-.2,4.8.6,3.6,1.2,4.2,1.3,4.2.1,0-1,1.3-1.4,4.3-1.4,3.2,0,4.9-.6,6.3-2.1,1-1.2,3.6-2.8,5.6-3.6,2.1-.8,3.6-1.9,3.3-2.3s.2-1,1-1.4c.8-.3,1.5-1.2,1.5-2s.8-1.7,1.8-2.1c2.6-.8,5.6-8.3,5.7-14.2,0-2.9.5-5.7,1.2-6.4.8-.8.8-1.9-.3-4.5-.8-1.8-1.4-4.4-1.4-5.8s-.4-2.8-1-3.1c-.5-.3-1-1.4-1-2.4s-.7-2.4-1.5-3.1-1.5-2.3-1.5-3.6c0-1.4-.8-2.5-2-2.9-1.1-.4-2.7-2-3.5-3.6-.9-1.6-2.1-2.9-2.8-2.9-.6,0-2.1-1.7-3.2-3.7-1.5-2.7-3.9-4.7-9-7.5-7.5-4-8.9-4.4-11.8-2.7Zm5.2,16.3c2.9,1.6,11.7,12.4,10.7,13.3-.3.3.3,1.8,1.4,3.3s1.6,3,1.2,3.4c-.3.4-.1,1,.5,1.4,1.4.9,2,7.3.8,9.2-.5.8-1,3.3-1,5.4,0,3.4-.5,4.2-3.3,5.8-1.8,1-4.3,2.9-5.5,4.2-1.5,1.6-3.7,2.6-6.7,2.9q-4.5.6-4.8-2.6c-.3-2.8-.4-5.6-.3-10,.1-3.4-1.2-11.3-2-11.7-.5-.4-.5-3,0-6s.7-7.6.6-10.2c-.2-2.6.1-5,.6-5.3.5-.4.9-1.5.9-2.6,0-2.3,2.9-2.5,6.9-.5Z"/><path class="cls-1" d="m185.95,335.65l-3.9,3.9.1,8.4c.1,4.6.5,8.6.9,8.9s.1,1.8-.7,3.3c-.8,1.6-1,2.9-.4,3.3.5.3.7,1.5.4,2.5-.4,1.2,0,3.1,1,4.5,1.5,2.4,1.5,2.8-.3,6.5q-2,4,0,5.8t-.2,3.4l-2.1,1.4,2.7,1.8c2.3,1.5,2.5,2,1.3,2.9-1.7,1.3-2.4,4.6-.9,4.6,1.4,0,1.3,2.7-.2,3.3-1,.4-1,.6-.1.6.7.1,1,.8.6,1.7-.3.9,0,2,.8,2.5,1.2.7,1.2,1,.1,1.8-1.2.7-1.2,1.2,0,3,1.1,1.8,1.1,2.3-.2,3.1-1,.6-1.4,2.8-1.5,7.4,0,3.6.3,6.6.7,6.6s.5.6.2,1.3c-.3.8.6,1.8,2.1,2.5,1.4.6,2.5,1.9,2.5,2.7,0,1.8,3.9,3.5,7.9,3.5,5.5,0,9-7.1,5.7-11.6-1.3-1.7-1.3-2.2,0-4.2,1.2-1.8,1.3-2.7.4-3.7-.8-1-.8-1.9-.1-3.4,1.4-2.5,1.4-7.8.1-8.6-.8-.5-.7-1.1.1-2.1.9-1.1.9-1.7-.1-2.9-.8-.9-1-2.8-.6-5.1.5-2.2.3-4.1-.4-4.9s-.9-2.3-.5-3.4c.3-1.1.1-3-.6-4.2-.9-1.7-.9-3.1,0-6.1,1.3-4.1,2.9-4.5,4.6-1.2.6,1,2.9,3.8,5.3,6.2,2.6,2.7,4.2,5.2,4.2,6.7,0,1.4.5,2.5,1.1,2.5s.8.7.5,1.6c-.4,1.1.7,3.2,2.9,6,2,2.4,3.1,4.4,2.4,4.4-.6,0,0,.9,1.4,2s3.3,4.3,4.2,7c1.9,5.6,6.4,11,9.2,11,1,0,2.4.5,2.9,1,1.9,1.9,5.2-.4,7.8-5.3,1.4-2.6,2.5-5.8,2.4-7.1-.2-2.3.6-4.5,3.8-10.7.7-1.4,1.1-2.9.7-3.2-.3-.4-.1-1.2.4-1.9.6-.7,1.4-3.9,1.7-7.1.4-3.1,1.2-5.7,1.7-5.7s.9-1.1.9-2.5.8-2.9,1.9-3.5c2.6-1.4,4.4-1.3,3.5.2-1.5,2.4-1.3,11.2.3,13.7,1.2,1.8,1.2,2.5.3,3.1s-.9.9.1,1.3c1.1.4,1.2.7.2,1.8-1.8,1.9-1.6,7,.3,8.4s2.2,6.4.4,7.5c-.9.6-.9.9,0,1.2,1.3.4,2.2,7.8.9,7.8-3.9,0,5.3,9.8,10.3,11,1.8.4,4.1,1.1,5.2,1.5,1.5.7,1.7.5,1.2-1.2-.4-1.2-.1-2.5.8-3.2,1.1-.9,1.4-2.7,1-6.9-.2-3.1-.5-8.9-.7-12.8-.1-3.9-.7-7.8-1.3-8.5-.6-.8-1-5.1-.9-9.9.1-4.7-.2-9.3-.7-10.3-.6-1.2-.5-2.3.3-3.3,1-1.2.8-1.9-.9-3.6-1.5-1.6-1.8-2.5-1-3.7.6-1.1.6-2.5-.3-4.6-.7-1.7-1.1-3.4-1-3.9.7-3,.2-8.8-1-10.2-.7-.9-1.2-2.9-1.1-4.4.1-1.6-.5-3.5-1.4-4.4-.8-.9-1.2-2-.9-2.6.3-.5.1-1-.5-1s-.8-.5-.5-1c.3-.6-.3-1-1.4-1s-2.5-.8-3-1.9c-.6-1-2.3-2.1-3.8-2.4-2.2-.4-3.4.1-5.8,2.9-7.7,8.6-9.7,11.6-10,14.4-.1,1.7-.5,3.3-.9,3.7-.3.3-.6,1.5-.6,2.5s-.5,1.8-1.1,1.8c-.5,0-.7.5-.3,1.2.4.6,0,1.6-.8,2.2-1.9,1.4-2.9,6.4-1.4,6.9.8.3.7.8-.1,1.8-.7.7-1.3,2.3-1.3,3.5s-.7,2.7-1.5,3.4-1.5,2.3-1.5,3.6c0,1.2-.4,2.6-1,2.9-.5.3-.9,1.7-.8,3,.2,2.4-2,7.5-3.2,7.5-.4,0-1-2.4-1.3-5.2-.5-4.1-1.3-5.9-3.6-8-1.6-1.5-3.2-3.7-3.6-4.8-.3-1.1-1.3-2-2.1-2s-1.4-.7-1.4-1.5c0-.9-1.8-3.5-4.1-6-2.2-2.4-3.8-4.9-3.4-5.5s-.1-2-1-3-1.4-2.3-1.1-2.8-.6-2.6-2.1-4.6c-1.4-2.1-2.9-5.3-3.4-7.2-1.1-3.8-4.3-6.4-12.4-9.9l-5.6-2.5-3.8,3.8Z"/><path class="cls-1" d="m553.85,337.85c0,1.3-.7,2-1.9,2-1.5,0-1.8.7-1.6,4.2.1,2.5.9,4.6,2,5.4.9.7,1.4,1.7,1.1,2.2-.3.6.5,1.7,1.9,2.6s2.5,2.2,2.5,3c0,.7,1.1,1.9,2.5,2.6,1.3.7,2.2,1.7,1.9,2.1-.6,1.1,1.6,5,3.9,6.7.9.7,1.7,1.9,1.7,2.7s.9,1.9,2,2.5,2,1.7,2,2.4c0,.8.7,1.9,1.5,2.6s1.3,1.6,1,2c-.2.4.7,1.8,2,3,1.4,1.3,2.5,2.9,2.5,3.5,0,.7,1.1,1.7,2.5,2.3s2.5,1.8,2.5,2.7c0,.8.9,1.5,2,1.5,1.8,0,1.9.2.8,2.2-.7,1.3-1.7,2.6-2.3,3-.6.5-.5.8.3.8,1.5,0,1.6,2.7.1,3.2-.7.2-.7,1.2,0,3.1.6,1.5.8,3.3.5,4.1-.3.7.3,1.6,1.3,2,1.4.6,1.5.9.3,1.6-1,.6-1.1,1.2-.2,2.2,1.2,1.5,1.1,5.6-.3,7.7-.5.9-.2,1.8.9,2.7,1.1.8,1.3,1.4.7,1.9-3.4,2.1,2.9,11.5,7.6,11.5,1.2,0,2.5.4,2.8,1,.9,1.5,3.5,1.2,3.5-.4,0-.7.7-1.9,1.6-2.7,1.1-.9,1.4-2.2,1-4.2-.3-1.6-.1-3.7.4-4.7.6-1,.6-2.1.2-2.4-1-.6-.9-3.6,0-5.2.4-.5-.2-3.6-1.2-6.8-1.5-4.5-1.7-6.1-.8-7.6.9-1.4.9-2.5,0-4.4-.6-1.4-.9-3.2-.6-4,.3-.7-.7-2.3-2.2-3.5-2.6-2.1-2.8-5.1-.2-5.1,1.6,0,9.8-10.3,9.8-12.3,0-.8.7-2,1.5-2.7s1.5-1.9,1.5-2.7c0-.7.7-1.6,1.6-2,.8-.3,1.3-1.2,1-2-.4-.9.1-1.7,1.2-2,1-.2,2.3-1.8,2.9-3.4.7-1.7,2.1-3.3,3.2-3.6,1.2-.3,2.1-1.2,2.1-1.9,0-.8.7-1.7,1.5-2,.8-.4,1.5-1.4,1.5-2.4s.7-2.3,1.6-3c2.9-2.5,1.4-7.1-3.4-10.3l-4.3-2.9-5.6,3.8c-3,2.1-5.9,4.8-6.4,6.1s-1.3,2.3-1.9,2.3c-.5,0-1,.7-1,1.5,0,.9-.9,2.6-2.1,3.8-3.7,3.9-7.6,10.2-7.2,11.4.3.7,0,1.3-.6,1.3-.9,0-3.1,3.7-3.5,6-.3,1.3-1.8,3-2.7,3-1.6,0-5.9-5.1-5.9-7,0-1-.8-2-1.8-2.3-1.1-.2-2.2-1.7-2.5-3.3s-2.4-4.8-4.5-7.2c-4.7-5-7.7-9.4-7.4-10.6.7-2.3-1.4-4.9-5.8-7.1-6.1-3.1-9-3.2-9-.5Z"/><path class="cls-1" d="m524.15,338.05c-1.2.6-2.3,1.9-2.6,2.9-.3,1.1-1.3,1.9-2.2,1.9-1.2,0-1.5.5-.9,2.2.3,1.3,1.1,2.9,1.6,3.5.7.9.5,1.5-.6,1.9s-1.4,1.4-1.1,3c.3,1.3.7,3.5,1,4.9.4,1.9.1,2.5-1.2,2.5-1.4,0-1.3.4.6,2.4,1.6,1.7,1.9,2.5.9,2.8-1,.4-1,.8-.2,1.9.8,1,.7,2.1-.2,3.8l-1.3,2.4-5.4-5.6c-3-3.1-6.2-5.7-7-5.7-.9,0-2-.6-2.4-1.4-1-1.7-6.7-4.6-9.1-4.6-1.2,0-2.4-1.1-3.2-3-.7-1.6-2.7-3.9-4.6-5.1-1.8-1.1-3.3-2.3-3.3-2.7.3-2.1-.3-3.2-1.9-3.2-1,0-2.8-1.1-4-2.5-2.5-2.9-8.9-3.6-9.8-1-.3.8-1.3,1.7-2.2,2-2.3.7-4.3,5-2.9,6.4.6.6.5,2.5-.6,5.8-1.4,4.1-1.4,5-.2,6.4,1.1,1.2,1.2,1.8.3,2.7-.7.7-.8,1.2-.4,1.2.5,0,.3.7-.4,1.5s-.8,1.5-.3,1.5.8,2.3.7,5.2c-.2,2.9.2,5.8.7,6.5.7.8.7,1.8-.1,3.2-.6,1.2-.7,2.1-.2,2.1.4,0,.9,2.6,1,5.7.1,3.2.2,8,.3,10.8.1,2.7.6,5.5,1.1,6.2.5.6.6,2.3.2,3.7-.3,1.5-.1,3.2.5,4,1,1.1.8,1.6-.5,2.4-1.1.6-1.3,1.1-.5,1.6,1.6,1,1.4,3.6-.4,3.6-.9,0-1.2.6-.8,1.6.3.9,0,1.9-.6,2.3-1.9,1.2-.2,6.1,2.4,7.1,1.3.5,2.6,1.8,2.9,2.8.5,1.4,1.9,2.2,5.1,2.7,4.7.7,7,0,5.9-1.6-.3-.6.1-1.8.9-2.7.8-1,1.4-3.3,1.2-5.7-.1-2.2.2-4.6.8-5.2.5-.7.7-1.9.4-2.8-.4-.8-.1-1.7.4-2.1.6-.3.8-1.6.4-2.8-.3-1.1-.8-5.3-1-9.1-.2-3.9-.4-7.2-.5-7.5-.2-.3-.2-.9-.1-1.3.1-.5-.4-2.7-1.1-5-.6-2.3-1.1-4.5-1-5,.1-.4-.2-.7-.8-.7-1.3,0-1.3-4.7,0-5.5.6-.4,1-1.2.9-1.8-.1-.7.1-2.3.5-3.7.3-1.4,0-4.9-.7-7.7-.8-2.9-1.2-5.5-.9-5.8,1.1-1.1,4.2-.4,4.2.9,0,1.7,6,6.6,7.9,6.6.7,0,1.9.6,2.6,1.2.7.7,3.2,2.4,5.4,3.8,2.3,1.3,4.1,2.9,4.1,3.5,0,.7,1.1,1.8,2.5,2.5s2.5,1.7,2.5,2.2,1.4,1.4,3,1.9c1.7.6,3,1.5,3,2,0,.6,1.3,1.5,3,2,1.6.6,2.7,1.6,2.4,2.1-.4.6-.1,1.4.7,1.8,1,.7,1,1.2.1,2.3-1,1.1-.9,1.7.3,2.7,1.9,1.6,1.9,3,.1,3-1.6,0-1,4.4,1.2,7.8,1.3,2,1.3,2.4-.3,3.5-1.5,1.2-1.6,1.4,0,2.7,1.2,1,1.3,1.5.3,2.1-1,.7-1,1.1,0,2.1,1.5,1.5,1.6,6.4.2,7.3-1.6,1-.1,4.7,2.9,7,5.4,4.3,14.1,5.6,12.7,1.9-.4-1,.3-2.3,1.6-3.4,1.9-1.5,2-2,1-3.3-1.2-1.4-1.4-6.9-1.1-25.5,0-1.8-.5-4-1.1-4.7-.8-.9-.9-2.9-.5-5.6.5-2.9.3-4.4-.5-4.9s-1-1.5-.5-2.6c1.7-3.8,2.7-20.1,1.4-21-.5-.3-.6-1-.3-1.6.4-.6.8-5,1-9.9q.3-9.6-6.9-13.7c-2.1-1.2-3.9-2.2-4-2.1-.1,0-1.2.5-2.4,1.1Zm-48.3,17.5c0,2.7-1.4,4.3-2.9,3.4-1.1-.7-1.1-1.2,0-3,1.7-2.6,2.9-2.7,2.9-.4Z"/></svg>