<?xml version="1.0" encoding="UTF-8"?><svg id="Layer_1" xmlns="http://www.w3.org/2000/svg" viewBox="0 0 530.49 62.24"><defs><style>.cls-1{fill:#faa634;}.cls-2{fill:#455560;}</style></defs><path class="cls-1" d="m19.55,36.86l5.23,5.23,5.96-5.96,9.79,9.8.34-.23c1.84-1.24,3.41-2.8,4.7-4.63l.24-.33-15.06-15.07-11.19,11.19Z"/><path class="cls-1" d="m54.99,49.92c4.29-5.42,6.65-12.19,6.65-19.1C61.64,13.83,47.81,0,30.82,0S0,13.83,0,30.82s13.82,30.82,30.82,30.82c6.92,0,13.45-2.25,18.92-6.52l7.11,7.11,5.24-5.23-7.09-7.09Zm-5.29-5.29h0s-.34.44-.34.44c-1.28,1.67-2.79,3.15-4.48,4.42l-.36.29c-4.02,2.92-8.75,4.46-13.7,4.46-12.92,0-23.42-10.5-23.42-23.42S17.9,7.4,30.82,7.4s23.42,10.51,23.42,23.42c0,5-1.57,9.76-4.54,13.81Z"/><path class="cls-2" d="m90.15,7.65h15c5.04,0,7.34.39,9.37,1.31,4.65,2.1,7.6,6.55,7.6,12.71,0,5.57-2.95,10.74-7.86,12.71v.13s.65.66,1.57,2.29l9.56,17.36h-9.43l-9.24-17.36h-8.12v17.36h-8.45V7.65Zm16.05,21.81c4.52,0,7.34-2.69,7.34-7.34s-1.9-7.21-8.52-7.21h-6.42v14.54h7.6Z"/><path class="cls-2" d="m145.04,7.65h8.45v46.51h-8.45V7.65Z"/><path class="cls-2" d="m178.11,42.24s5.04,4.91,11.59,4.91c3.54,0,6.75-1.83,6.75-5.63,0-8.32-21.94-6.88-21.94-21.16,0-7.73,6.68-13.49,15.59-13.49s13.89,4.98,13.89,4.98l-3.67,6.88s-4.45-4.06-10.28-4.06c-3.93,0-7.01,2.29-7.01,5.57,0,8.25,21.88,6.22,21.88,21.09,0,7.4-5.63,13.62-15.33,13.62-10.35,0-16.05-6.35-16.05-6.35l4.59-6.35Z"/><path class="cls-2" d="m225.14,7.65h8.45v18.93h6.03l10.94-18.93h9.17l-13.17,22.14v.13l13.95,24.24h-9.5l-11.4-20.31h-6.03v20.31h-8.45V7.65Z"/><path class="cls-2" d="m297.98,6.86c13.76,0,24.11,10.42,24.11,23.78,0,5.63-2.03,10.68-5.11,14.74l5.24,4.72-4.85,5.37-5.17-5.11c-3.87,2.95-8.78,4.59-14.21,4.59-13.62,0-23.98-10.74-23.98-24.3s10.35-23.78,23.98-23.78Zm0,40.35c2.82,0,5.9-.92,8.12-2.42l-5.17-4.91,4.85-5.31,5.04,5.04c1.57-2.55,2.55-5.7,2.55-8.97,0-9.24-6.75-16.05-15.39-16.05s-15.26,6.81-15.26,16.05,6.75,16.57,15.26,16.57Z"/><path class="cls-2" d="m341.14,7.65h8.45v29.81c0,6.22,4.06,9.76,10.29,9.76s10.35-3.54,10.35-9.83V7.65h8.45v29.81c0,10.42-7.53,17.49-18.73,17.49s-18.8-7.07-18.8-17.49V7.65Z"/><path class="cls-2" d="m399.62,7.65h27.84v7.27h-19.39v12.18h15.66v7.27h-15.66v12.51h20.44v7.27h-28.89V7.65Z"/><path class="cls-2" d="m450.12,42.24s5.04,4.91,11.59,4.91c3.54,0,6.75-1.83,6.75-5.63,0-8.32-21.94-6.88-21.94-21.16,0-7.73,6.68-13.49,15.59-13.49s13.89,4.98,13.89,4.98l-3.67,6.88s-4.46-4.06-10.28-4.06c-3.93,0-7.01,2.29-7.01,5.57,0,8.25,21.88,6.22,21.88,21.09,0,7.4-5.63,13.62-15.33,13.62-10.35,0-16.05-6.35-16.05-6.35l4.58-6.35Z"/><path class="cls-2" d="m506.78,14.92h-15.26v-7.27h38.98v7.27h-15.26v39.24h-8.45V14.92Z"/></svg>